<svg width="0" height="0" class="hidden">
  <symbol id="exploria-logo" xmlns="http://www.w3.org/2000/svg" viewBox="0 0 999.57 284.83">
    <g data-name="Layer 1" stroke-width="0">
      <g fill="#0179a0">
        <path d="M294.04 90.03h69.89v14.98h-51.39v28.92h48.3v14.98h-48.3v30.68h51.39v14.98h-69.89V90.04ZM469.99 194.56h-22.17l-28.34-39.05-28.34 39.05h-22.17l39.79-53.3-38.47-51.24h22.17l27.01 37.44 27.31-37.44h22.02l-38.61 51.39 39.79 53.15ZM477.92 90.03h45.37c11.26 0 20.02 2.72 26.28 8.15 6.26 5.43 9.4 12.85 9.4 22.24s-3.16 16.84-9.47 22.32c-6.31 5.48-15.05 8.22-26.21 8.22h-26.43v43.6h-18.94V90.03Zm43.16 46.25c6.56 0 11.53-1.35 14.9-4.04 3.38-2.69 5.06-6.58 5.06-11.67s-1.66-9.13-4.99-11.82c-3.33-2.69-8.32-4.04-14.98-4.04h-24.22v31.57h24.22ZM573.49 90.03h18.94V179h48.89v15.56h-67.83V90.03ZM667.83 189.35c-7.49-4.36-13.26-10.57-17.33-18.65-4.06-8.07-6.09-17.59-6.09-28.56s2.01-20.33 6.02-28.41c4.01-8.07 9.76-14.26 17.25-18.57s16.32-6.46 26.5-6.46 19.01 2.15 26.5 6.46c7.49 4.31 13.21 10.5 17.18 18.57 3.96 8.08 5.95 17.55 5.95 28.41s-2.01 20.48-6.02 28.56c-4.01 8.08-9.74 14.29-17.18 18.65-7.44 4.36-16.25 6.53-26.43 6.53s-18.87-2.18-26.35-6.53Zm48.96-18.57c5.38-6.66 8.08-16.2 8.08-28.63s-2.69-21.8-8.08-28.41c-5.38-6.61-12.92-9.91-22.61-9.91s-17.23 3.28-22.61 9.84c-5.38 6.56-8.07 16.05-8.07 28.48s2.69 21.97 8.07 28.63c5.38 6.66 12.92 9.98 22.61 9.98s17.23-3.33 22.61-9.98ZM847.02 194.56h-19.97l-13.36-34.8c-1.18-3.23-2.99-5.48-5.43-6.75-2.45-1.27-5.63-1.91-9.54-1.91h-18.94v43.46h-18.79V90.03h44.78c11.84 0 20.85 2.6 27.02 7.78 6.17 5.19 9.25 12.63 9.25 22.32 0 6.95-1.84 12.85-5.51 17.69-3.67 4.85-8.88 8.3-15.64 10.35 6.17 1.27 10.62 5.58 13.36 12.92l12.77 33.48Zm-43.9-58.14c7.14 0 12.43-1.32 15.86-3.96 3.42-2.64 5.14-6.66 5.14-12.04s-1.69-9.22-5.06-11.82c-3.38-2.59-8.69-3.89-15.93-3.89h-23.64v31.71h23.64ZM861.85 90.03h18.94v104.53h-18.94V90.03ZM970.64 170.05h-51.09l-10.57 24.52h-19.09l47.28-104.53h15.42l47.42 104.53h-18.94l-10.42-24.52Zm-6.31-14.68-19.23-44.78-19.23 44.78h38.47Z"/>
      </g>
      <path d="M162.09 165.56h11.85c-1.25 1-2.8 1.81-4.67 2.46-4.68 1.62-6.41 1.49-7.17-2.46Z"/>
      <path d="M143.42 284.59C161.47 231.89 207 172.38 210.41 167c.5-.47.98-.95 1.47-1.43l.01-.02c17.63-17.56 28.56-41.84 28.56-68.63 0-11.35-1.97-22.25-5.58-32.38-2.33 1.78-4.73 3.49-7.22 5.07 2.8 8.61 4.32 17.78 4.32 27.31 0 27.66-12.77 52.4-32.71 68.63-15.22 12.39-34.62 19.83-55.74 19.83s-40.52-7.43-55.75-19.83a87.832 87.832 0 0 1-8.27-7.64c-1.46 2.49-2.93 5.05-4.36 7.64l.01.01c.49.48.98.96 1.47 1.43 3.41 5.39 48.74 64.9 66.79 117.6Z" fill="#0179a0"/>
      <path d="M56.5 112.86a88.96 88.96 0 0 1-1.44-15.93c0-48.78 39.68-88.46 88.46-88.46 27.81 0 52.66 12.9 68.89 33.04 1.44-.65 2.89-1.29 4.33-1.93 1.25-.55 2.53-1 3.82-1.39C202.84 14.99 174.9 0 143.52 0 90.07 0 46.59 43.48 46.59 96.93c0 5.56.48 11.02 1.38 16.33 2.89-.1 5.74-.23 8.53-.39Z" fill="#ef7056"/>
      <g fill="#0179a0">
        <path d="M0 113.27s46.57 30.75 93.27.43c0 0-62.53 10.2-93.27-.43ZM54.79 204.37c4.88-31.9 42.5-81.93 43.09-82.71-48.59 27.19-43.09 82.71-43.09 82.71Z"/>
      </g>
      <path d="M241.7 44.77c-1.85-3.53-5.2-4.62-8.72-4.13-4.86.68-9.94 1.3-14.35 3.25-12.18 5.35-24.13 11.24-36.03 17.21-3.42 1.71-5.99 1.77-9.37-.2-19.44-11.3-39.18-22.09-58.48-33.62-5.38-3.21-9.51-3.31-14.62-.16-4.86 3-5.38 4.37-1.43 8.23 9.99 9.79 20.05 19.51 30.06 29.3 5.04 4.92 10.01 9.92 15.46 15.31-10.63 5.17-20.57 10.09-30.63 14.77-1.03.48-2.95-.1-4.05-.82-4.37-2.84-8.79-5.66-12.78-8.98-5.61-4.67-10.92-5.14-16.93-.78-3.44 2.49-3.97 3.92-1.05 7.18 5.95 6.64 12.07 13.13 17.83 19.94 1.84 2.17 3.33 5.01 3.96 7.77 1.68 7.35 2.74 14.84 4.13 22.26 1.93 10.32 2.07 10.29 11.68 5.65 2.93-1.41 4.43-3.2 4.54-6.53.25-6.85.71-13.7 1.26-20.53.11-1.34.68-3.3 1.65-3.8 9.97-5.18 20.07-10.11 30.65-15.37.95 7.88 1.82 14.95 2.63 22.03 1.6 13.76 3.14 27.53 4.75 41.29.07.55.14 1.06.23 1.51.76 3.95 2.49 4.08 7.17 2.46 1.88-.65 3.42-1.46 4.67-2.46 2.93-2.31 4.21-5.59 4.16-10.06-.03-1.9.48-3.8.75-5.7 2.9-20.64 5.83-41.27 8.68-61.92.35-2.55 1.39-4.03 3.84-5.18 10.31-4.86 20.7-9.6 30.61-15.17 6.36-3.58 12.18-8.25 17.78-12.99 2.74-2.32 3.91-6.02 1.94-9.77Z" fill="#ef7056"/>
    </g>
  </symbol>
  <symbol id="favourite" xmlns="http://www.w3.org/2000/svg" viewBox="0 0 653.52 800">
    <path d="M0 0v800l326.76-135.51L653.52 800V0H0Zm434.23 500.27-107.47-68.6-107.48 68.6 32.03-123.42-98.45-81.03 127.27-7.68 46.63-118.66 46.62 118.66 127.28 7.68-98.45 81.03 32.02 123.42Z" stroke-width="0" />
  </symbol>
  <symbol id="stamp" xmlns="http://www.w3.org/2000/svg" viewBox="0 0 148.48 142.54">
    <g>
      <circle cx="79.96" cy="74.02" r="68.53" fill="#ffb3c6" stroke-width="0"/>
      <circle cx="69.53" cy="69.53" r="68.53" transform="rotate(-45 69.53 69.53)" fill="none" stroke="#fff" stroke-miterlimit="10" stroke-width="2"/>
      <circle cx="69.53" cy="69.53" r="52.97" transform="rotate(-80.89 69.517 69.528)" fill="none" stroke="#fff" stroke-miterlimit="10" stroke-width="2"/>
      <g fill="#fff" stroke-width="0">
        <path d="M54.18 125.61c-.88-.27-1.32-.41-2.19-.71.13-.36.2-.54.33-.9 2.08.72 3.13 1.03 5.26 1.52-.09.38-.14.57-.23.95-.89-.21-1.34-.32-2.23-.57-.87 3.02-1.3 4.53-2.17 7.55-.44-.13-.65-.2-1.09-.34.93-3 1.39-4.49 2.31-7.49ZM63.62 126.52l-1 8.95-1.11-.15c.47-3.56.7-5.34 1.17-8.91.38.05.56.07.94.11ZM76.41 131.49c-.23-1.27-.49-2.8-.63-3.95h-.03c-.12 1.11-.29 2.29-.56 3.6-.37 1.84-.57 2.76-1.03 4.58l-.84.05c-.68-1.72-1-2.58-1.59-4.3a35.6 35.6 0 0 1-1.03-3.53h-.02c.01 1.14 0 2.68-.04 4.05-.05 1.57-.07 2.35-.13 3.92h-1.06c.23-3.65.32-5.47.47-9.13.48 0 .72-.02 1.2-.04.57 1.75.87 2.62 1.52 4.37.4 1.11.75 2.1 1.04 3.04h.04c.14-.94.35-1.97.59-3.16.4-1.83.57-2.74.88-4.59.48-.06.72-.09 1.19-.16.71 3.64 1.08 5.47 1.85 9.11-.43.06-.65.09-1.08.14-.3-1.6-.45-2.4-.74-4.01ZM87.83 128.51c-1.19.42-1.79.61-3 .96.38 1.3.57 1.96.95 3.26 1.43-.4 2.14-.63 3.55-1.13l.35.97c-1.86.65-2.8.94-4.7 1.43-.98-3.63-1.48-5.45-2.46-9.08 1.53-.43 2.29-.68 3.79-1.23.14.39.21.58.34.97-1.17.43-1.75.62-2.94.97l.83 2.86c1.19-.35 1.78-.54 2.95-.95.13.38.2.57.34.96Z"/>
      </g>
      <path fill="none" stroke="#fff" stroke-miterlimit="10" stroke-width="2" d="M51.64 91.94h65.95M21.92 91.94h14.22M50.65 74.52h71.9M17.33 74.52h14.59M51.33 79.44c3.13 0 3.13 6 6.27 6s3.13-6 6.26-6 3.13 6 6.27 6 3.13-6 6.27-6 3.13 6 6.27 6 3.13-6 6.27-6 3.13 6 6.27 6 3.13-6 6.27-6 3.14 6 6.27 6 3.14-6 6.28-6 3.14 6 6.28 6M33.3 84.69c-3.17 0-3.17-4.48-6.33-4.48s-3.17 4.48-6.33 4.48l-1.87.03"/>
      <path d="M50.4 72.97c3.29 19.34-.74 36.15-3.16 36.56-2.43.41-11.78-14.13-15.07-33.46-3.29-19.34-.05-36.02 3.16-36.56 3.21-.55 11.78 14.13 15.07 33.46ZM47.24 109.54 35.33 39.51M58.3 74.04c0-7.18 5.82-13.01 13.01-13.01s13.01 5.82 13.01 13.01" fill="none" stroke="#fff" stroke-miterlimit="10" stroke-width="2"/>
      <path d="M95.38 63.16s6.35-.09 7.1 5.23c0 0 .75-5.79 7.01-5.23M48.17 36.91s6.35-.09 7.1 5.23c0 0 .75-5.79 7.01-5.23M75.3 50.85s4.2-.06 4.69 3.46c0 0 .49-3.83 4.63-3.46" fill="none" stroke="#fff" stroke-linecap="round" stroke-linejoin="round"/>
      <g fill="#fff" stroke-width="0">
        <path d="M41.31 12.54c-.81.37-1.22.56-2.02.96-.16-.32-.24-.48-.39-.8 1.98-.99 2.99-1.44 5.03-2.25.13.34.2.5.33.84-.83.33-1.25.5-2.07.86 1.15 2.67 1.72 4.01 2.87 6.68-.31.13-.47.2-.78.34-1.19-2.65-1.78-3.98-2.97-6.63ZM49.92 8.51c.43-.24 1.08-.49 1.71-.65.98-.26 1.67-.2 2.21.15.43.28.75.79.88 1.42.23 1.07-.19 1.91-.82 2.36v.04c.56.09 1 .61 1.33 1.42.45 1.09.77 1.84.96 2.13-.34.07-.5.1-.84.18-.15-.21-.45-.88-.86-1.84-.45-1.07-.9-1.41-1.69-1.25-.32.08-.48.12-.8.21.37 1.39.56 2.08.93 3.46-.32.09-.48.13-.8.22-.89-3.14-1.33-4.71-2.22-7.85Zm1.88 3.38c.35-.1.53-.14.88-.23.92-.24 1.38-.98 1.17-1.91-.24-1.05-1.01-1.36-1.96-1.11-.44.11-.74.25-.87.34.31 1.17.47 1.75.78 2.92ZM62.67 11.76c-.18 1.08-.27 1.62-.43 2.69-.34.03-.51.05-.85.09.49-3.43.79-5.15 1.52-8.59.45-.04.68-.06 1.13-.09 1.19 3.29 1.73 4.96 2.67 8.32-.35 0-.53.01-.88.03-.31-1.05-.47-1.58-.81-2.62-.94.05-1.42.08-2.36.17Zm2.14-1.01c-.31-.95-.48-1.43-.81-2.38-.19-.54-.33-1.03-.47-1.51h-.02c-.07.51-.15 1.03-.25 1.55-.2.99-.3 1.49-.48 2.48.81-.07 1.22-.1 2.03-.15ZM73.28 14.42c-.52-3.48-.84-5.21-1.61-8.65l1.02.05c.34 1.7.49 2.55.77 4.26.19 1.17.34 2.23.41 3.24h.02c.28-.97.67-2.01 1.09-3.09.65-1.63.99-2.44 1.7-4.06.4.05.6.07 1 .13-1.53 3.26-2.23 4.9-3.5 8.2-.36-.04-.54-.06-.9-.09ZM86.17 12.8c-1.03-.3-1.54-.45-2.57-.71-.31 1.21-.46 1.81-.77 3.02 1.09.28 1.64.43 2.72.77-.11.36-.17.54-.28.9-1.38-.43-2.08-.62-3.48-.96.81-3.36 1.21-5.04 2.02-8.41 1.55.36 2.32.56 3.85 1.01-.11.36-.16.54-.27.9a58.34 58.34 0 0 0-2.88-.78c-.27 1.06-.41 1.59-.68 2.65 1.05.26 1.57.41 2.61.71l-.27.89ZM94.17 10.71l.89.37c-1.25 2.87-1.87 4.31-3.11 7.18 1.03.45 1.55.69 2.56 1.2-.17.34-.25.51-.42.86-1.3-.65-1.96-.95-3.29-1.51l3.37-8.09Z"/>
      </g>
    </g>
  </symbol>
</svg>