<svg width="0" height="0" class="hidden">
  <symbol id="exploria-logo" xmlns="http://www.w3.org/2000/svg" viewBox="0 0 999.57 284.83">
    <g data-name="Layer 1" stroke-width="0">
      <g fill="#0179a0">
        <path d="M294.04 90.03h69.89v14.98h-51.39v28.92h48.3v14.98h-48.3v30.68h51.39v14.98h-69.89V90.04ZM469.99 194.56h-22.17l-28.34-39.05-28.34 39.05h-22.17l39.79-53.3-38.47-51.24h22.17l27.01 37.44 27.31-37.44h22.02l-38.61 51.39 39.79 53.15ZM477.92 90.03h45.37c11.26 0 20.02 2.72 26.28 8.15 6.26 5.43 9.4 12.85 9.4 22.24s-3.16 16.84-9.47 22.32c-6.31 5.48-15.05 8.22-26.21 8.22h-26.43v43.6h-18.94V90.03Zm43.16 46.25c6.56 0 11.53-1.35 14.9-4.04 3.38-2.69 5.06-6.58 5.06-11.67s-1.66-9.13-4.99-11.82c-3.33-2.69-8.32-4.04-14.98-4.04h-24.22v31.57h24.22ZM573.49 90.03h18.94V179h48.89v15.56h-67.83V90.03ZM667.83 189.35c-7.49-4.36-13.26-10.57-17.33-18.65-4.06-8.07-6.09-17.59-6.09-28.56s2.01-20.33 6.02-28.41c4.01-8.07 9.76-14.26 17.25-18.57s16.32-6.46 26.5-6.46 19.01 2.15 26.5 6.46c7.49 4.31 13.21 10.5 17.18 18.57 3.96 8.08 5.95 17.55 5.95 28.41s-2.01 20.48-6.02 28.56c-4.01 8.08-9.74 14.29-17.18 18.65-7.44 4.36-16.25 6.53-26.43 6.53s-18.87-2.18-26.35-6.53Zm48.96-18.57c5.38-6.66 8.08-16.2 8.08-28.63s-2.69-21.8-8.08-28.41c-5.38-6.61-12.92-9.91-22.61-9.91s-17.23 3.28-22.61 9.84c-5.38 6.56-8.07 16.05-8.07 28.48s2.69 21.97 8.07 28.63c5.38 6.66 12.92 9.98 22.61 9.98s17.23-3.33 22.61-9.98ZM847.02 194.56h-19.97l-13.36-34.8c-1.18-3.23-2.99-5.48-5.43-6.75-2.45-1.27-5.63-1.91-9.54-1.91h-18.94v43.46h-18.79V90.03h44.78c11.84 0 20.85 2.6 27.02 7.78 6.17 5.19 9.25 12.63 9.25 22.32 0 6.95-1.84 12.85-5.51 17.69-3.67 4.85-8.88 8.3-15.64 10.35 6.17 1.27 10.62 5.58 13.36 12.92l12.77 33.48Zm-43.9-58.14c7.14 0 12.43-1.32 15.86-3.96 3.42-2.64 5.14-6.66 5.14-12.04s-1.69-9.22-5.06-11.82c-3.38-2.59-8.69-3.89-15.93-3.89h-23.64v31.71h23.64ZM861.85 90.03h18.94v104.53h-18.94V90.03ZM970.64 170.05h-51.09l-10.57 24.52h-19.09l47.28-104.53h15.42l47.42 104.53h-18.94l-10.42-24.52Zm-6.31-14.68-19.23-44.78-19.23 44.78h38.47Z"/>
      </g>
      <path d="M162.09 165.56h11.85c-1.25 1-2.8 1.81-4.67 2.46-4.68 1.62-6.41 1.49-7.17-2.46Z"/>
      <path d="M143.42 284.59C161.47 231.89 207 172.38 210.41 167c.5-.47.98-.95 1.47-1.43l.01-.02c17.63-17.56 28.56-41.84 28.56-68.63 0-11.35-1.97-22.25-5.58-32.38-2.33 1.78-4.73 3.49-7.22 5.07 2.8 8.61 4.32 17.78 4.32 27.31 0 27.66-12.77 52.4-32.71 68.63-15.22 12.39-34.62 19.83-55.74 19.83s-40.52-7.43-55.75-19.83a87.832 87.832 0 0 1-8.27-7.64c-1.46 2.49-2.93 5.05-4.36 7.64l.01.01c.49.48.98.96 1.47 1.43 3.41 5.39 48.74 64.9 66.79 117.6Z" fill="#0179a0"/>
      <path d="M56.5 112.86a88.96 88.96 0 0 1-1.44-15.93c0-48.78 39.68-88.46 88.46-88.46 27.81 0 52.66 12.9 68.89 33.04 1.44-.65 2.89-1.29 4.33-1.93 1.25-.55 2.53-1 3.82-1.39C202.84 14.99 174.9 0 143.52 0 90.07 0 46.59 43.48 46.59 96.93c0 5.56.48 11.02 1.38 16.33 2.89-.1 5.74-.23 8.53-.39Z" fill="#ef7056"/>
      <g fill="#0179a0">
        <path d="M0 113.27s46.57 30.75 93.27.43c0 0-62.53 10.2-93.27-.43ZM54.79 204.37c4.88-31.9 42.5-81.93 43.09-82.71-48.59 27.19-43.09 82.71-43.09 82.71Z"/>
      </g>
      <path d="M241.7 44.77c-1.85-3.53-5.2-4.62-8.72-4.13-4.86.68-9.94 1.3-14.35 3.25-12.18 5.35-24.13 11.24-36.03 17.21-3.42 1.71-5.99 1.77-9.37-.2-19.44-11.3-39.18-22.09-58.48-33.62-5.38-3.21-9.51-3.31-14.62-.16-4.86 3-5.38 4.37-1.43 8.23 9.99 9.79 20.05 19.51 30.06 29.3 5.04 4.92 10.01 9.92 15.46 15.31-10.63 5.17-20.57 10.09-30.63 14.77-1.03.48-2.95-.1-4.05-.82-4.37-2.84-8.79-5.66-12.78-8.98-5.61-4.67-10.92-5.14-16.93-.78-3.44 2.49-3.97 3.92-1.05 7.18 5.95 6.64 12.07 13.13 17.83 19.94 1.84 2.17 3.33 5.01 3.96 7.77 1.68 7.35 2.74 14.84 4.13 22.26 1.93 10.32 2.07 10.29 11.68 5.65 2.93-1.41 4.43-3.2 4.54-6.53.25-6.85.71-13.7 1.26-20.53.11-1.34.68-3.3 1.65-3.8 9.97-5.18 20.07-10.11 30.65-15.37.95 7.88 1.82 14.95 2.63 22.03 1.6 13.76 3.14 27.53 4.75 41.29.07.55.14 1.06.23 1.51.76 3.95 2.49 4.08 7.17 2.46 1.88-.65 3.42-1.46 4.67-2.46 2.93-2.31 4.21-5.59 4.16-10.06-.03-1.9.48-3.8.75-5.7 2.9-20.64 5.83-41.27 8.68-61.92.35-2.55 1.39-4.03 3.84-5.18 10.31-4.86 20.7-9.6 30.61-15.17 6.36-3.58 12.18-8.25 17.78-12.99 2.74-2.32 3.91-6.02 1.94-9.77Z" fill="#ef7056"/>
    </g>
  </symbol>
  <symbol id="exploria-logo-mobile" xmlns="http://www.w3.org/2000/svg" viewBox="0 0 136.44 160">
    <g stroke-width="0" data-name="Layer 1">
      <path d="M91.13 93.08h6.66c-.7.56-1.57 1.02-2.63 1.38-2.63.91-3.6.84-4.03-1.38Z"/>
      <path d="M80.63 160c10.15-29.63 35.75-63.08 37.66-66.11.28-.26.55-.53.82-.8v-.01c9.91-9.87 16.05-23.52 16.05-38.58 0-6.38-1.11-12.51-3.13-18.21-1.31 1-2.66 1.96-4.06 2.85 1.58 4.84 2.43 10 2.43 15.36 0 15.55-7.18 29.46-18.39 38.58-8.56 6.97-19.47 11.15-31.34 11.15s-22.78-4.18-31.34-11.15a49.747 49.747 0 0 1-4.65-4.3c-.82 1.4-1.65 2.84-2.45 4.3.27.27.55.54.83.8 1.92 3.03 27.4 36.49 37.55 66.11Z" fill="#0179a0"/>
      <path d="M31.77 63.45c-.53-2.91-.81-5.9-.81-8.96 0-27.42 22.31-49.73 49.73-49.73 15.64 0 29.61 7.25 38.73 18.57.81-.37 1.62-.73 2.44-1.08.71-.31 1.42-.56 2.15-.78C114.04 8.43 98.33 0 80.69 0c-30.05 0-54.5 24.45-54.5 54.49 0 3.13.27 6.19.78 9.18 1.62-.05 3.23-.13 4.79-.22Z" fill="#ef7056"/>
      <g fill="#0179a0">
        <path d="M0 63.68s26.18 17.29 52.43.24c0 0-35.16 5.74-52.43-.24ZM30.81 114.9c2.74-17.93 23.89-46.06 24.22-46.5-27.32 15.28-24.22 46.5-24.22 46.5Z"/>
      </g>
      <path d="M135.89 25.17c-1.04-1.98-2.92-2.59-4.9-2.32-2.73.38-5.59.73-8.07 1.83-6.85 3.01-13.57 6.32-20.26 9.68-1.92.96-3.37.99-5.27-.11-10.93-6.35-22.03-12.42-32.88-18.9-3.02-1.81-5.35-1.86-8.22-.09-2.73 1.69-3.03 2.46-.81 4.63 5.62 5.51 11.27 10.97 16.9 16.47 2.83 2.77 5.63 5.57 8.69 8.61-5.97 2.91-11.57 5.67-17.22 8.31-.58.27-1.66-.06-2.28-.46-2.46-1.59-4.94-3.18-7.19-5.05-3.15-2.63-6.14-2.89-9.52-.44-1.94 1.4-2.23 2.21-.59 4.04 3.34 3.73 6.79 7.38 10.02 11.21 1.04 1.22 1.87 2.81 2.22 4.37.94 4.13 1.54 8.34 2.32 12.51 1.08 5.8 1.17 5.78 6.57 3.17 1.65-.8 2.49-1.8 2.55-3.67.14-3.85.4-7.7.71-11.54.06-.75.38-1.85.93-2.14 5.61-2.91 11.29-5.68 17.23-8.64.53 4.43 1.02 8.4 1.48 12.38.9 7.74 1.77 15.48 2.67 23.22.04.31.08.6.13.85.43 2.22 1.4 2.29 4.03 1.38 1.06-.37 1.92-.82 2.63-1.38 1.65-1.3 2.37-3.14 2.34-5.66-.01-1.07.27-2.14.42-3.2 1.63-11.6 3.28-23.2 4.88-34.81.19-1.43.78-2.27 2.16-2.91 5.79-2.73 11.64-5.4 17.21-8.53 3.58-2.01 6.85-4.64 10-7.3 1.54-1.3 2.2-3.39 1.09-5.49Z" fill="#ef7056"/>
    </g>
  </symbol>
  <symbol id="favourite" xmlns="http://www.w3.org/2000/svg" viewBox="0 0 653.52 800">
    <path d="M0 0v800l326.76-135.51L653.52 800V0H0Zm434.23 500.27-107.47-68.6-107.48 68.6 32.03-123.42-98.45-81.03 127.27-7.68 46.63-118.66 46.62 118.66 127.28 7.68-98.45 81.03 32.02 123.42Z" fill="currentColor" stroke-width="0" />
  </symbol>
  <symbol id="stamp" xmlns="http://www.w3.org/2000/svg" viewBox="0 0 148.48 142.54">
    <g>
      <circle cx="79.96" cy="74.02" r="68.53" fill="#ffb3c6" stroke-width="0"/>
      <circle cx="69.53" cy="69.53" r="68.53" transform="rotate(-45 69.53 69.53)" fill="none" stroke="currentColor" stroke-miterlimit="10" stroke-width="2"/>
      <circle cx="69.53" cy="69.53" r="52.97" transform="rotate(-80.89 69.517 69.528)" fill="none" stroke="currentColor" stroke-miterlimit="10" stroke-width="2"/>
      <g fill="currentColor" stroke-width="0">
        <path d="M54.18 125.61c-.88-.27-1.32-.41-2.19-.71.13-.36.2-.54.33-.9 2.08.72 3.13 1.03 5.26 1.52-.09.38-.14.57-.23.95-.89-.21-1.34-.32-2.23-.57-.87 3.02-1.3 4.53-2.17 7.55-.44-.13-.65-.2-1.09-.34.93-3 1.39-4.49 2.31-7.49ZM63.62 126.52l-1 8.95-1.11-.15c.47-3.56.7-5.34 1.17-8.91.38.05.56.07.94.11ZM76.41 131.49c-.23-1.27-.49-2.8-.63-3.95h-.03c-.12 1.11-.29 2.29-.56 3.6-.37 1.84-.57 2.76-1.03 4.58l-.84.05c-.68-1.72-1-2.58-1.59-4.3a35.6 35.6 0 0 1-1.03-3.53h-.02c.01 1.14 0 2.68-.04 4.05-.05 1.57-.07 2.35-.13 3.92h-1.06c.23-3.65.32-5.47.47-9.13.48 0 .72-.02 1.2-.04.57 1.75.87 2.62 1.52 4.37.4 1.11.75 2.1 1.04 3.04h.04c.14-.94.35-1.97.59-3.16.4-1.83.57-2.74.88-4.59.48-.06.72-.09 1.19-.16.71 3.64 1.08 5.47 1.85 9.11-.43.06-.65.09-1.08.14-.3-1.6-.45-2.4-.74-4.01ZM87.83 128.51c-1.19.42-1.79.61-3 .96.38 1.3.57 1.96.95 3.26 1.43-.4 2.14-.63 3.55-1.13l.35.97c-1.86.65-2.8.94-4.7 1.43-.98-3.63-1.48-5.45-2.46-9.08 1.53-.43 2.29-.68 3.79-1.23.14.39.21.58.34.97-1.17.43-1.75.62-2.94.97l.83 2.86c1.19-.35 1.78-.54 2.95-.95.13.38.2.57.34.96Z"/>
      </g>
      <path fill="none" stroke="currentColor" stroke-miterlimit="10" stroke-width="2" d="M51.64 91.94h65.95M21.92 91.94h14.22M50.65 74.52h71.9M17.33 74.52h14.59M51.33 79.44c3.13 0 3.13 6 6.27 6s3.13-6 6.26-6 3.13 6 6.27 6 3.13-6 6.27-6 3.13 6 6.27 6 3.13-6 6.27-6 3.13 6 6.27 6 3.13-6 6.27-6 3.14 6 6.27 6 3.14-6 6.28-6 3.14 6 6.28 6M33.3 84.69c-3.17 0-3.17-4.48-6.33-4.48s-3.17 4.48-6.33 4.48l-1.87.03"/>
      <path d="M50.4 72.97c3.29 19.34-.74 36.15-3.16 36.56-2.43.41-11.78-14.13-15.07-33.46-3.29-19.34-.05-36.02 3.16-36.56 3.21-.55 11.78 14.13 15.07 33.46ZM47.24 109.54 35.33 39.51M58.3 74.04c0-7.18 5.82-13.01 13.01-13.01s13.01 5.82 13.01 13.01" fill="none" stroke="currentColor" stroke-miterlimit="10" stroke-width="2"/>
      <path d="M95.38 63.16s6.35-.09 7.1 5.23c0 0 .75-5.79 7.01-5.23M48.17 36.91s6.35-.09 7.1 5.23c0 0 .75-5.79 7.01-5.23M75.3 50.85s4.2-.06 4.69 3.46c0 0 .49-3.83 4.63-3.46" fill="none" stroke="currentColor" stroke-linecap="round" stroke-linejoin="round"/>
      <g fill="currentColor" stroke-width="0">
        <path d="M41.31 12.54c-.81.37-1.22.56-2.02.96-.16-.32-.24-.48-.39-.8 1.98-.99 2.99-1.44 5.03-2.25.13.34.2.5.33.84-.83.33-1.25.5-2.07.86 1.15 2.67 1.72 4.01 2.87 6.68-.31.13-.47.2-.78.34-1.19-2.65-1.78-3.98-2.97-6.63ZM49.92 8.51c.43-.24 1.08-.49 1.71-.65.98-.26 1.67-.2 2.21.15.43.28.75.79.88 1.42.23 1.07-.19 1.91-.82 2.36v.04c.56.09 1 .61 1.33 1.42.45 1.09.77 1.84.96 2.13-.34.07-.5.1-.84.18-.15-.21-.45-.88-.86-1.84-.45-1.07-.9-1.41-1.69-1.25-.32.08-.48.12-.8.21.37 1.39.56 2.08.93 3.46-.32.09-.48.13-.8.22-.89-3.14-1.33-4.71-2.22-7.85Zm1.88 3.38c.35-.1.53-.14.88-.23.92-.24 1.38-.98 1.17-1.91-.24-1.05-1.01-1.36-1.96-1.11-.44.11-.74.25-.87.34.31 1.17.47 1.75.78 2.92ZM62.67 11.76c-.18 1.08-.27 1.62-.43 2.69-.34.03-.51.05-.85.09.49-3.43.79-5.15 1.52-8.59.45-.04.68-.06 1.13-.09 1.19 3.29 1.73 4.96 2.67 8.32-.35 0-.53.01-.88.03-.31-1.05-.47-1.58-.81-2.62-.94.05-1.42.08-2.36.17Zm2.14-1.01c-.31-.95-.48-1.43-.81-2.38-.19-.54-.33-1.03-.47-1.51h-.02c-.07.51-.15 1.03-.25 1.55-.2.99-.3 1.49-.48 2.48.81-.07 1.22-.1 2.03-.15ZM73.28 14.42c-.52-3.48-.84-5.21-1.61-8.65l1.02.05c.34 1.7.49 2.55.77 4.26.19 1.17.34 2.23.41 3.24h.02c.28-.97.67-2.01 1.09-3.09.65-1.63.99-2.44 1.7-4.06.4.05.6.07 1 .13-1.53 3.26-2.23 4.9-3.5 8.2-.36-.04-.54-.06-.9-.09ZM86.17 12.8c-1.03-.3-1.54-.45-2.57-.71-.31 1.21-.46 1.81-.77 3.02 1.09.28 1.64.43 2.72.77-.11.36-.17.54-.28.9-1.38-.43-2.08-.62-3.48-.96.81-3.36 1.21-5.04 2.02-8.41 1.55.36 2.32.56 3.85 1.01-.11.36-.16.54-.27.9a58.34 58.34 0 0 0-2.88-.78c-.27 1.06-.41 1.59-.68 2.65 1.05.26 1.57.41 2.61.71l-.27.89ZM94.17 10.71l.89.37c-1.25 2.87-1.87 4.31-3.11 7.18 1.03.45 1.55.69 2.56 1.2-.17.34-.25.51-.42.86-1.3-.65-1.96-.95-3.29-1.51l3.37-8.09Z"/>
      </g>
    </g>
  </symbol>
  <symbol id="not-found" xmlns="http://www.w3.org/2000/svg" viewBox="0 0 287.18 249.84">
    <g stroke-width="0">
      <path d="M282.14 100.75c-.36-3.46-3.15-6.3-6.61-6.75a7.56 7.56 0 0 0-4.22.66c.01-.24.04-.48.04-.72 0-8.43-6.84-15.27-15.27-15.27-3.23 0-6.23 1.01-8.7 2.73-2.53-10.37-12.24-17.92-23.57-17.07-10.79.81-19.58 9.42-20.63 20.19-.33 3.35.1 6.56 1.1 9.5a7.61 7.61 0 0 0-.96-.07c-1.49 0-2.87.43-4.05 1.17 0-.14.02-.27.02-.41 0-8.02-6.5-14.52-14.52-14.52s-14.52 6.5-14.52 14.52c0 .78.08 1.55.2 2.3h-24.38c-3.37 0-6.11 2.74-6.11 6.11s2.74 6.11 6.11 6.11h131.1v-.48c3.16-1.16 5.34-4.34 4.95-7.98Z" fill="#ffd780"/>
      <path d="M0 209.84s36.17-68.62 79.26-67.9c61.97 1.04 100.7 60.36 100.7 60.36L0 209.84Z" fill="#ffd16b"/>
      <path d="M90.47 209.84s51.12-87.32 94.22-86.6c61.97 1.04 94.21 85.14 94.21 85.14l-188.43 1.46Z" fill="#ffd780"/>
      <path d="M287.18 221.35c0 15.18-67.89 15.09-144.53 25.43C22.91 262.94 0 209.84 0 209.84c5.76-14.39 78.89-33.32 150.14-33.32s137.04 29.65 137.04 44.83Z" fill="#fcba4e"/>
      <path d="M152.72 51.51h-23.6c.64-2.46.6-5.2-.89-8.12-1.61-3.17-4.52-5.57-8-6.3-2.17-.46-4.24-.28-6.11.34v-.38c0-11.48-9.31-20.79-20.79-20.79-10.16 0-18.61 7.29-20.42 16.91-.84-.16-1.7-.25-2.58-.25-7.28 0-13.21 5.69-13.62 12.86H24.65c-3.96 0-7.41 3.05-7.53 7.01a7.227 7.227 0 0 0 7.23 7.45h128.37c2.41 0 4.37-1.96 4.37-4.37s-1.96-4.37-4.37-4.37ZM240.38 25.57h-14.04c.38-1.46.36-3.09-.53-4.83-.96-1.88-2.69-3.31-4.76-3.75a6.905 6.905 0 0 0-3.63.2v-.23c0-6.83-5.54-12.37-12.37-12.37-6.04 0-11.07 4.34-12.15 10.06-.5-.1-1.01-.15-1.54-.15-4.33 0-7.86 3.39-8.11 7.65h-19.08c-2.36 0-4.41 1.82-4.48 4.17a4.307 4.307 0 0 0 4.3 4.44h76.38c1.44 0 2.6-1.16 2.6-2.6s-1.16-2.6-2.6-2.6Z" fill="#ffd780"/>
      <path d="M27.36 194.23c11.93 14.14 47.19 41.22 137.33 29.05 45.39-6.13 87.71-8.59 114.67-12.74-19.46-15.31-72.62-34.02-129.22-34.02-46.57 0-93.94 8.09-122.78 17.71Z" fill="#fcae30"/>
      <path d="M209.85 71.47c.36-1.74-1.15-3.67-1.9-5.27-.59-1.25-1.19-2.5-1.77-3.76-.09-.19-.23-.74-.31-.59.13-.42.57-.94.76-1.29 1.02-1.85 2.4-3.51 2.4-5.64v-4.65c0-.89.25-2.23 0-3.1-.29-.99-1.3-1.94-1.91-2.76l-1.62-2.16c-.31-.42-.68-1.27-.79-.88.2-1 1.64-2.62 2.11-3.41.72-1.2 1.44-2.4 2.16-3.61.3-.5-.39-.77-.74-.77h-53.66c.06-.08.09-.17.09-.27V1.44c.43-.51-.04-1.58-.92-1.42C146.26 1.36 139.48 5 132.1 6.7c-.35.08-.53.3-.6.56-.09.08-.15.18-.15.28v26.07H82.16c-.35 0-.91.3-.91.7-.02 3.61-.05 7.22-.07 10.83 0 1.14-.08 1.32.65 2.1 1.02 1.09 2.43 1.97 3.7 2.87-.01.01-.02.02-.03.04-1.3.69-2.6 1.38-3.9 2.06-.21.11-.47.32-.47.59-.02 3.9-.05 7.79-.07 11.69l-.05 7.97c0 1.26-.31 2.98-.03 4.22.33 1.44 1.83 2.95 2.65 4.16.09.13.23.3.37.47-.23.25-.32.55-.07.7-.02.02-.04.04-.06.07-.81.8-1.54 1.89-2.21 2.81-.94 1.29-.75 2.28-.76 3.9-.01 2.24-.03 4.47-.04 6.71 0 .45.4.59.79.6 14.27.45 28.54.91 42.81 1.36l8.22.26v106.62c-.58.39-.42 1.56.49 1.6l20.36 1c.6.03.87-.45.83-.91.03-.09.06-.19.06-.31V98.41c12.66.4 25.33.81 37.99 1.21 5.13.16 10.27.33 15.4.49.15.03.31.03.47-.01.23-.03.41-.12.53-.26.17-.15.27-.36.22-.59l-3.27-15.33c-.09-.43-.2-1.45-.27-1.24.18-1.05.88-2.22 1.26-3.2.99-2.55 2.57-5.32 3.12-8Z" fill="#ffffeb"/>
      <g fill="#fcae30">
        <path d="M209.85 71.47c.36-1.74-1.15-3.67-1.9-5.27-.59-1.25-1.19-2.5-1.77-3.76-.09-.19-.23-.74-.31-.59.13-.42.57-.94.76-1.29 1.02-1.85 2.4-3.51 2.4-5.64v-4.65c0-.89.25-2.23 0-3.1-.29-.99-1.3-1.94-1.91-2.76l-1.62-2.16c-.31-.42-.68-1.27-.79-.88.2-1 1.64-2.62 2.11-3.41.72-1.2 1.44-2.4 2.16-3.61.3-.5-.39-.77-.74-.77h-53.66c.06-.08.09-.17.09-.27V1.44c.43-.51-.04-1.58-.92-1.42C146.26 1.36 139.48 5 132.1 6.7c-.35.08-.53.3-.6.56-.09.08-.15.18-.15.28v26.07H82.16c-.35 0-.91.3-.91.7-.02 3.61-.05 7.22-.07 10.83 0 1.14-.08 1.32.65 2.1 1.02 1.09 2.43 1.97 3.7 2.87-.01.01-.02.02-.03.04-1.3.69-2.6 1.38-3.9 2.06-.21.11-.47.32-.47.59-.02 3.9-.05 7.79-.07 11.69l-.05 7.97c0 1.26-.31 2.98-.03 4.22.33 1.44 1.83 2.95 2.65 4.16.09.13.23.3.37.47-.23.25-.32.55-.07.7-.02.02-.04.04-.06.07-.81.8-1.54 1.89-2.21 2.81-.94 1.29-.75 2.28-.76 3.9-.01 2.24-.03 4.47-.04 6.71 0 .45.4.59.79.6 14.27.45 28.54.91 42.81 1.36l8.22.26v106.62c-.58.39-.42 1.56.49 1.6l20.36 1c.6.03.87-.45.83-.91.03-.09.06-.19.06-.31V98.41c12.66.4 25.33.81 37.99 1.21 5.13.16 10.27.33 15.4.49.15.03.31.03.47-.01.23-.03.41-.12.53-.26.17-.15.27-.36.22-.59l-3.27-15.33c-.09-.43-.2-1.45-.27-1.24.18-1.05.88-2.22 1.26-3.2.99-2.55 2.57-5.32 3.12-8ZM133.03 8.25c6.8-1.65 13.11-4.86 19.96-6.32v31.54s0 .09.02.14h-19.97V8.25Zm19.65 196.91-11.59-.57c.34-.08.63-.35.63-.8v-24.01c0-1.11-1.73-1.12-1.73 0v24.01c0 .41.23.67.53.78l-6.11-.3V97.77c6.09.19 12.18.39 18.27.58v106.81Zm51.36-120.99c-6.32.47-12.65.65-18.99.53-.56-.01-1.8.82-.68.84 6.62.12 13.23-.07 19.83-.59.57 2.65 1.13 5.3 1.7 7.95-27.52.5-55.05.66-82.58.5-.97 0-1.27 1.26-.14 1.27 27.66.17 55.33 0 82.98-.5.33 1.53.66 3.07.98 4.6l-41.72-1.33-67.95-2.16-14.92-.48c.03-2.58.14-5.18.05-7.76-.05-1.35-.14-.85.75-1.98l2.28-2.91c6.83.34 13.67.56 20.51.66.95.01 1.29-1.19.15-1.21-6.86-.1-13.71-.33-20.55-.68-.83-1.23-1.63-2.49-2.51-3.68-.72-.97-.59-.46-.55-1.69.09-3.03.06-6.07.06-9.1 6.55-.32 13.11-.63 19.66-.95.96-.05 1.27-1.32.14-1.27l-19.8.96v-.26c.02-3.64.05-7.29.07-10.93 0-.33.03-.67 0-1.01h.04c1.17-.21 2.56-1.21 3.73-1.93.39.12.8.13 1.34.1.41-.03.74-.27.85-.5l27.22.36c.65 0 1.77-.96.64-.97-9.69-.13-19.38-.26-29.07-.38-.01-.01-.02-.03-.04-.04-1.35-1.04-2.66-2.27-4.11-3.16-.14-.09-.38-.23-.55-.38-.13-.54.01-1.33.02-1.87l.06-9.31h123.97c-1.29 2.15-2.58 4.3-3.87 6.44-.08.14-.05.37.04.5 1.31 1.74 3.15 3.54 4.12 5.49.09.19.13.22.13.2.07.36 0 .81 0 1.16v4.45c0 2.56-.07 3.13-1.28 5.33-.62 1.13-1.53 2.18-1.68 3.33-7.11-.11-14.21.07-21.3.56-.86.06-1.36 1.09-.21 1.01 7.19-.5 14.39-.68 21.6-.54.68 2.41 2.28 5.05 3.43 7.26.13.25.36.6.42.89v.07c-.07.89-.8 2.06-1.13 2.89-1 2.57-2.03 5.13-3.01 7.71-.41 1.07-.37 1.47-.15 2.53Z"/>
        <path d="M202.33 40.09c-14.21-.32-28.42-.24-42.63.22-.87.03-1.35 1.06-.2 1.02 14.06-.46 28.13-.52 42.2-.21.69.02 1.76-1.01.63-1.03ZM102.84 38.59c-5.38-.12-10.77-.23-16.16-.35-.96-.02-1.27 1.22-.14 1.24 5.39.12 10.77.23 16.16.35.96.02 1.27-1.22.14-1.24ZM109.42 88.62c-6.73-.12-13.46-.23-20.19-.35-.69-.01-1.76 1.02-.63 1.04 6.73.12 13.46.23 20.19.35.69.01 1.76-1.02.63-1.04ZM199.33 88.8h1.15c.35 0 .88-.27.93-.66.05-.43-.45-.52-.76-.52h-1.15c-.35 0-.88.27-.93.66-.05.43.45.52.76.52ZM91.75 76.63l-5.48-.33c-.34-.02-.94.03-1.18.32-.18.21-.28.45.13.48l5.48.33c.34.02.94-.03 1.18-.32.18-.21.28-.45-.13-.47ZM199.17 57.85c-2.79-.11-5.58-.22-8.37-.32-.58-.02-1.8.81-.68.86 2.79.11 5.58.22 8.37.32.58.02 1.8-.81.68-.86ZM196.5 47.78h-9.81c-.34 0-1.89.66-1.09.66h9.81c.34 0 1.89-.66 1.09-.66ZM148.64 148.75c-.14-.47-.07-.88.2-1.29.61-.93-.88-1.8-1.49-.87-.51.77-.64 1.74-.37 2.63.32 1.06 1.99.61 1.67-.46ZM147.68 172.46v2.21c-.04.07-.07.14-.07.23v20.07c0 .73 1.34.56 1.34-.08v-19.38c.26-.12.46-.37.46-.74v-2.31c0-1.11-1.73-1.12-1.73 0ZM148.16 199.84c-1.11 0-1.12 1.73 0 1.73s1.12-1.73 0-1.73ZM148.55 124.63l-.36-19.61c-.01-.63-1.34-.39-1.33.13l.36 19.61c.01.63 1.34.39 1.33-.13ZM141.19 154.16v-44.24c0-.4-1.32-.15-1.32.35v44.24c0 .4 1.32.15 1.32-.35ZM144.84 155.65v-19.16c0-.69-1.34-.5-1.34.1v19.16c0 .69 1.34.5 1.34-.1ZM139.42 12.59c-.48 0-1.41.72-.52.72.48 0 1.41-.72.52-.72ZM142.15 10.39v16.88c0 .28 1.32.07 1.32-.35V10.04c0-.28-1.32-.07-1.32.35ZM138.95 17.12v12.77c0 .62 1.33.38 1.33-.13V16.99c0-.62-1.33-.38-1.33.13ZM150.35 7.07v12.31c0 .69 1.34.49 1.34-.1V6.97c0-.69-1.34-.49-1.34.1ZM140.74 171.62v-9.58c0-.69-1.34-.49-1.34.1v9.58c0 .69 1.34.49 1.34-.1ZM138.45 107.29v-7.75c0-.63-1.33-.38-1.33.13v7.75c0 .63 1.33.38 1.33-.13Z"/>
      </g>
      <g fill="#d9663d">
        <path d="M130.99 75.09h-3.44v5.92h-5.9v-5.92h-12.19v-4.2l12.52-18.44h5.57V70.4h3.44v4.69Zm-9.34-4.69v-4.84c0-.81.03-1.98.1-3.52.06-1.54.12-2.43.16-2.68h-.16a20.9 20.9 0 0 1-1.74 3.12l-5.23 7.91h6.88ZM153.02 66.73c0 4.99-.82 8.68-2.45 11.07-1.63 2.4-4.15 3.59-7.55 3.59s-5.78-1.24-7.45-3.71c-1.67-2.47-2.51-6.13-2.51-10.96s.81-8.75 2.44-11.14c1.63-2.39 4.13-3.58 7.52-3.58s5.78 1.25 7.47 3.75 2.53 6.16 2.53 10.98Zm-13.96 0c0 3.5.3 6.01.91 7.53.61 1.52 1.62 2.28 3.06 2.28s2.42-.77 3.05-2.3c.62-1.54.94-4.04.94-7.5s-.32-6.02-.95-7.55c-.63-1.53-1.64-2.29-3.04-2.29s-2.44.77-3.05 2.29c-.61 1.53-.92 4.05-.92 7.55ZM176.65 75.09h-3.44v5.92h-5.9v-5.92h-12.19v-4.2l12.52-18.44h5.57V70.4h3.44v4.69Zm-9.34-4.69v-4.84c0-.81.03-1.98.1-3.52s.12-2.43.16-2.68h-.16a20.9 20.9 0 0 1-1.74 3.12l-5.23 7.91h6.88Z"/>
      </g>
      <path d="M64.56 191.96v5.67c0 .43.97.25.97-.11v-5.67c0-.43-.97-.25-.97.11Z" fill="#fcae30"/>
      <path d="M59.36 196.82h14.31v-47.49c16.78-1.14 30.08-15.15 30.08-32.21 0-4.05-3.29-7.34-7.34-7.34s-7.34 3.29-7.34 7.34c0 8.96-6.73 16.38-15.4 17.47v-20.14c0-3.95-3.2-7.15-7.15-7.15s-7.15 3.2-7.15 7.15v36.76c-7.4-2.09-12.84-8.89-12.84-16.95 0-4.05-3.29-7.34-7.34-7.34s-7.34 3.29-7.34 7.34c0 16.18 11.97 29.62 27.52 31.94v30.62Z" fill="#ffffeb"/>
      <path d="M58.61 166.24c.56.55 0 4.2 0 5v19.41c0 1.91-.2 4.08-.05 6.17h1.52c-.21-2.43.03-5.03.03-7.45V166.2c0-.3-.23-.67-.55-.72-14.35-2.45-27.48-15.14-26.95-30.5.13-3.83 2.29-7.3 6.57-7.3 4.53 0 6.11 3.5 6.62 7.29.33 2.45.61 4.69 1.68 6.98 2.31 4.98 6.53 8.32 11.69 9.99.47.15.95-.25.95-.72v-33.94c0-3.13-.06-6.47 3.17-8.35 4.61-2.69 9.16 1.09 9.64 5.77.09.89 0 1.84 0 2.73v17.16c0 .53.48.8.95.72 5.55-.92 10.42-3.9 13.35-8.78a18.38 18.38 0 0 0 2.38-6.64c.5-3.23.12-6.5 3.48-8.46 4.62-2.7 9.48.85 9.91 5.69-.36 16.58-12.78 29.98-29.33 31.46-.4.04-.75.31-.75.75v45.66c0 .6.03 1.22 0 1.82h1.6c.19-2.57-.11-5.32-.11-7.79v-32.2c0-1.85-.59-4.79 0-6.55.12-.34.13-.49.12-.55.03 0 .09 0 .2-.07.93-.5 4.43-.37 5.89-.8 4.4-1.27 8.5-3.49 12.02-6.42 7.57-6.31 11.64-15.56 11.85-25.32-.58-6.44-7.67-10.75-13.19-6.26-2.59 2.1-2.69 4.61-3.04 7.66-.34 3.02-1.29 5.88-3.06 8.36-2.49 3.49-5.55 4.52-9.06 6.43-1.69.92-1.35 1.47-1.72.35-.27-.84 0-2.29 0-3.19v-10.22c0-4.57.73-9.92-3.91-12.63-5.47-3.2-11.49 1.02-11.89 6.86-.29 4.13 0 8.39 0 12.53v19.18c0 1 .52 3.8 0 4.72.37-.65-2.6-1.82-3.72-2.55-3.17-2.08-5.61-5.25-6.79-8.86-1.17-3.58-.18-7.45-2.78-10.49-2.03-2.38-5.29-3.34-8.28-2.51-7.79 2.14-6.3 11.66-4.47 17.55 2.44 7.86 7.87 14.65 14.97 18.79 1.6.93 3.28 1.73 5.02 2.38 1.17.44 2.64 1.08 3.9 1.19-1.28-.11 2.74.41 2.15-.16Z" fill="#fcae30"/>
      <path d="M68.38 121.24v23.42c0 .41.83.27.83-.07v-23.42c0-.41-.83-.27-.83.07ZM69.8 154.61v6.21c0 .21.82.07.82-.22v-6.21c0-.21-.82-.07-.82.22ZM68.39 171.53v16.36c0 .18.82.05.82-.22v-16.36c0-.18-.82-.05-.82.22ZM64.71 132.52v24.26c0 .44.83.32.83-.06v-24.26c0-.44-.83-.32-.83.06ZM64.72 163.07v4.23c0 .25.82.09.82-.22v-4.23c0-.25-.82-.09-.82.22ZM63.31 113.06v5.36c0 .39.82.24.82-.08v-5.36c0-.39-.82-.24-.82.08ZM54.41 155.08c-6.65-5.38-12.41-12.63-11.95-21.64 0-.16-.8-.05-.82.22-.46 9.04 5.33 16.31 12 21.71.19.15.92-.16.77-.29ZM47.46 154.32c-1.78-1.45-3.2-3.23-4.2-5.3-.15-.31-.95-.06-.82.22a15.74 15.74 0 0 0 4.27 5.41c.25.2 1.01-.13.76-.34ZM41.79 152.91c-4.61-5.06-7-11.64-6.69-18.48.02-.43-.81-.32-.83.06-.32 6.94 2.09 13.65 6.77 18.78.26.28 1.03-.05.75-.37ZM93.08 118.15a32.167 32.167 0 0 1-6.28 13.35c-.04.06.66.04.81-.15 3.11-3.94 5.23-8.44 6.28-13.35.04-.17-.76-.05-.81.15ZM79.73 136.03c-.91 1.16-2.27 1.72-3.74 1.52-.4-.06-.83.52-.28.59 1.8.25 3.58-.44 4.7-1.87.32-.41-.45-.54-.68-.24ZM97.94 113.2c-.02-.17-.84 0-.82.22.35 2.97-.21 5.8-1.65 8.41-.07.12.69.07.81-.14 1.46-2.64 2.02-5.5 1.66-8.49ZM99.56 122.89c-3.43 10.54-12.68 18.66-23.63 20.54-.41.07-.65.62-.09.52 11.35-1.95 20.98-10.18 24.54-21.14.11-.33-.72-.23-.82.08ZM62.86 182.96v10.67c0 .22.97.06.97-.26V182.7c0-.22-.97-.06-.97.26Z" fill="#fcae30"/>
      <path d="M102.58 207.55c.02 1.13-1.07 1.96-1.86 2.57-.29.22-.3.81-.02 1.05 1.74 1.41 4.2 3.37 3.56 5.93-.88 3.5-5.46 1.06-7.31-.07-.33-.2-.65-.11-.87.1l-31.58 7.69a.68.68 0 0 0-.54.64c-.03.08-.06.17-.06.27-.15 3.02-2.83 5.29-5.86 4.48-1.85-.49-3.37-2.11-2.67-4.13.57-1.63 2.19-2.56 3.58-3.4.62-.37.41-1.35-.34-1.38-1.4-.06-2.76-.39-3.94-1.18-1.85-1.24-2.31-3.54-.28-4.9 2.61-1.74 5.5.3 7.45 2.22-.49.44-.13 1.47.67 1.27L95 210.8c.33.13.73.06.88-.32a.72.72 0 0 0 .18-.67c.45-1.55 1.44-2.87 2.97-3.55 1.17-.52 3.51-.89 3.55 1.3Z" fill="#ffffeb"/>
      <path d="m94.66 209.36-31.2 7.6c-2.7-2.81-7.96-6.05-11.05-1.87-2.63 3.55.83 6.41 4.21 7.36-1.44 1.03-2.68 2.33-2.91 4.18-.26 2.14 1.22 3.91 3.11 4.72 3.98 1.71 8.12-1.1 8.54-5.21l31.1-7.57s.08-.03.12-.04c2.55 1.49 6.84 3.32 8.7.04 1.74-3.06-.63-5.94-2.89-7.9 1.02-.94 1.81-2.13 1.65-3.61-.15-1.43-1.25-2.38-2.63-2.61-3.13-.52-5.91 2.09-6.76 4.93Zm7.93-1.81c.02 1.13-1.07 1.96-1.86 2.57-.29.22-.3.81-.02 1.05 1.74 1.41 4.2 3.37 3.56 5.93-.88 3.5-5.46 1.06-7.31-.07-.33-.2-.65-.11-.87.1l-31.58 7.69a.68.68 0 0 0-.54.64c-.03.08-.06.17-.06.27-.15 3.02-2.83 5.29-5.86 4.48-1.85-.49-3.37-2.11-2.67-4.13.57-1.63 2.19-2.56 3.58-3.4.62-.37.41-1.35-.34-1.38-1.4-.06-2.76-.39-3.94-1.18-1.85-1.24-2.31-3.54-.28-4.9 2.61-1.74 5.5.3 7.45 2.22-.49.44-.13 1.47.67 1.27l32.49-7.91c.33.13.73.06.88-.32a.72.72 0 0 0 .18-.67c.45-1.55 1.44-2.87 2.97-3.55 1.17-.52 3.51-.89 3.55 1.3Z" fill="#fcae30"/>
      <path d="m62.75 221.49 21.3-5.19c.46-.11 0-1.1-.37-1.01l-21.3 5.19c-.46.11 0 1.1.37 1.01ZM87.78 215.64l3.59-.87c.17-.04-.23-1.05-.53-.97l-3.59.87c-.17.04.23 1.05.53.97ZM99.09 153.22c0-1.55 1.26-2.8 2.8-2.8s2.8 1.26 2.8 2.8a6.73 6.73 0 0 0 5.88 6.67v-7.69c0-1.51 1.22-2.73 2.73-2.73s2.73 1.22 2.73 2.73v14.04c2.83-.8 4.91-3.4 4.91-6.48 0-1.55 1.25-2.8 2.8-2.8s2.8 1.25 2.8 2.8c0 6.18-4.57 11.32-10.51 12.2v11.88c0 1.51-1.22 2.73-2.73 2.73s-2.73-1.22-2.73-2.73v-18.32c-6.41-.44-11.49-5.79-11.49-12.3ZM240.9 176.29c0-1.39 1.13-2.52 2.52-2.52s2.52 1.13 2.52 2.52c0 3.07 2.31 5.62 5.28 5.99v-6.91c0-1.36 1.1-2.45 2.45-2.45 1.36 0 2.45 1.1 2.45 2.45v12.61c2.54-.72 4.4-3.05 4.4-5.81 0-1.39 1.13-2.52 2.52-2.52s2.52 1.13 2.52 2.52c0 5.55-4.11 10.16-9.44 10.95v10.66c0 1.36-1.1 2.45-2.45 2.45-1.36 0-2.45-1.1-2.45-2.45v-16.45c-5.75-.39-10.32-5.2-10.32-11.05Z" fill="#fcae30"/>
      <path d="M250.86 140.67c-3.32 0-6 2.69-6 6v.32c0 5.17-4.2 9.37-9.37 9.37h-3.52v-32.27c0-3.8-3.08-6.89-6.89-6.89s-6.89 3.08-6.89 6.89v17.84c-3.61-.18-6.49-3.17-6.49-6.82v-.93c0-3.32-2.69-6-6-6s-6 2.69-6 6v.93c0 10.27 8.27 18.65 18.5 18.84v15.86h-3.84c-5.17 0-9.37-4.2-9.37-9.37 0-3.32-2.69-6-6-6s-6 2.69-6 6c0 11.79 9.59 21.38 21.38 21.38h3.84v13.23h13.77v-26.68h3.52c11.79 0 21.38-9.59 21.38-21.38v-.32c0-3.32-2.69-6-6-6Z" fill="#ffffeb"/>
      <path d="M251.17 140.02c-.09-.04-.19-.06-.31-.04-.13-.01-.23 0-.32.05-2.59.34-4.85 1.57-5.89 4.13-.68 1.66-.33 3.43-.81 5.14-1.1 3.99-4.65 6.14-8.62 6.37-.85.05-2.28-.35-2.64 0 .01-.35.06-.73.07-.91.19-2.55 0-5.19 0-7.75v-19.2c0-4.37-.03-9.04-5-10.85-5.44-1.98-9.98 2.41-10.17 7.66-.09 2.63 0 5.29 0 7.92 0 2.01.91 7.01 0 8.85-.02.03-.02.05-.03.07-.03 0-.06 0-.11.01-.74.2-3.93-2.96-4.16-3.37-1.17-2.09-.42-4.34-1.28-6.45-1.01-2.49-3.52-4.18-6.21-4.18-8.08 0-7.35 9.93-5.23 15.07a19.63 19.63 0 0 0 6.06 7.96c1.31 1.02 2.74 1.88 4.27 2.54 1.12.49 2.28.87 3.47 1.14.03 0 3.35.47 2.93.12.2.17.28.61.28 1.79v3.97c0 2.7.69 6.48 0 9.12-.42.02-.94-.04-1.23-.08-2.24-.28-4.14.08-6.29-1.19-5.43-3.18-2.49-9.66-7.15-12.96-6.13-4.34-11.08 2.29-10.4 8.05.91 7.73 6 14.56 13.14 17.67 3.31 1.44 6.72 1.81 10.29 1.83.52 0 1.05.01 1.57 0h.16c.14.93-.09 2.26-.09 3.11 0 2.6-.46 6.15-.25 9.43h1.64c-.21-4.39 0-8.84 0-13.23 0-.38-.32-.7-.7-.7-5.02 0-9.78-.19-14.27-2.83-6.04-3.54-12.45-12.54-9.47-19.73.41-2.24 1.92-3.39 4.53-3.43 3.23.3 5 2.07 5.31 5.31.28 1.09.18 2.14.56 3.25.64 1.87 1.79 3.5 3.36 4.71 3 2.32 6.42 2.1 9.99 2.1.38 0 .7-.32.7-.7v-15.86c0-.39-.32-.68-.7-.7-8.95-.46-19.78-8.9-17.8-19.07.56-2.86 2.33-4.89 5.31-5.31 3.7-.51 4.75 3.26 5.31 5.77.23 1.02.09 2.02.46 3.05 1.04 2.9 3.6 4.5 6.54 4.91.44.06.88-.17.88-.67v-15.22c0-4 .99-8.8 6.19-8.8 4.79 0 6.19 4.38 6.19 8.24v30.21c0 .38.32.7.7.7 3.49 0 6.83.13 9.74-2.16 1.68-1.32 2.92-3.17 3.49-5.23 1.01-3.65.1-7.74 5.67-8.3 11.21 1.13 2.54 17.35-1.65 21.07-5.01 4.45-10.84 5.23-17.25 5.23-.38 0-.7.32-.7.7v26.68h1.63c.35-4.44-.23-9.27-.23-13.55v-9.73c0-.74-.17-1.82-.07-2.64.35.19 1.3-.06 1.98-.07 8.61-.08 16.53-4.17 20.56-12.02 2.94-5.73 4.61-15.92-3.96-17.04Z" fill="#fcae30"/>
      <path d="M227.75 146.68v21.12c0 .24.9.08.9-.24v-21.12c0-.24-.9-.08-.9.24ZM223.4 154.69v6.06c0 .39.9.21.9-.1v-6.06c0-.39-.9-.21-.9.1ZM223.87 171.83v13.82c0 .14.9.01.9-.24v-13.82c0-.14-.9-.01-.9.24ZM226.35 121.99v9.78c0 .17.9.04.9-.24v-9.78c0-.17-.9-.04-.9.24ZM222.15 127.04v2.79c0 .41.9.24.9-.1v-2.8c0-.41-.9-.24-.9.1ZM249.43 149.07c-1.21 2.81-2.44 5.77-4.65 7.96-3.04 3.01-6.8 3.13-10.82 2.89-.42-.02-.93.59-.32.62 3.49.21 7.08.29 10.09-1.76 3.33-2.27 5.01-6.05 6.55-9.63.2-.46-.71-.43-.86-.08ZM251.73 153.85c-.74 1.9-1.89 3.54-3.4 4.9-.22.19.64.12.82-.04a12.9 12.9 0 0 0 3.47-5c.08-.21-.79-.11-.89.14ZM228.65 195.06v-13.12c0-.49-.91-.37-.91.06v13.06h.91ZM228.21 175.71v1.86c0 .48.91.35.91-.06v-1.86c0-.48-.91-.35-.91.06ZM213.09 173.14c-6.49-.89-11.28-5.79-12.11-12.27-.04-.31-.94-.1-.9.24.85 6.64 5.85 11.62 12.46 12.53.29.04 1.06-.43.55-.5ZM212.16 176.73c-.82.03-1.59-.12-2.34-.44-.4-.17-1.04.41-.51.63.89.37 1.82.53 2.78.5.52-.02.68-.71.07-.69ZM211.4 148.04c-1.99-.05-4.46-3.43-5.56-4.9-1.72-2.3-2.74-4.91-2.3-7.81.05-.32-.85-.15-.9.13-.47 3.11.68 5.91 2.6 8.32 1.34 1.69 3.43 4.68 5.8 4.73.31 0 .96-.45.36-.47ZM212.04 142.61c-1.47-.25-2.59-1.45-2.8-2.91-.02-.16-.93.02-.9.24.22 1.54 1.43 2.75 2.96 3.01.19.03.46-.02.63-.12.06-.03.32-.18.11-.22ZM220.76 138.99v8.38c0 .22.9.07.9-.24v-8.38c0-.22-.9-.07-.9.24ZM227.98 136.83v3.26c0 .39.9.21.9-.11v-3.26c0-.39-.9-.21-.9.11Z" fill="#fcae30"/>
      <path d="M30.33 179.47c-1.14 0-2.06.92-2.06 2.06v.11c0 1.77-1.44 3.21-3.21 3.21h-1.21V173.8c0-1.3-1.06-2.36-2.36-2.36-1.3 0-2.36 1.06-2.36 2.36v6.11a2.333 2.333 0 0 1-2.22-2.34v-.32c0-1.14-.92-2.06-2.06-2.06s-2.06.92-2.06 2.06v.32c0 3.52 2.83 6.39 6.34 6.45v5.43h-1.32c-1.77 0-3.21-1.44-3.21-3.21 0-1.14-.92-2.06-2.06-2.06s-2.06.92-2.06 2.06c0 4.04 3.29 7.32 7.32 7.32h1.32v5.02c0 1.3 1.06 2.36 2.36 2.36 1.3 0 2.36-1.06 2.36-2.36v-9.63h1.21c4.04 0 7.32-3.29 7.32-7.32v-.11c0-1.14-.92-2.06-2.06-2.06Z" fill="#fcba4e"/>
      <path d="M249.55 218.81c-.96-.16-1.95-.11-2.87.17l-.39.11c.54-1.46.86-3.02 1.25-4.54.07-.26-.19-.53-.46-.39-1.14.6-2.21 1.31-3.19 2.11-.18-2.38-1.69-4.59-2.76-6.65-.11-.21-.43-.25-.56-.04a16.35 16.35 0 0 0-2.17 5.11c-.22-.33-.46-.64-.73-.93-.54-.59-1.73-1.8-2.63-1.6-.96.22-.54 1.83-.49 2.5.1 1.27.27 2.53.57 3.77-1.29.13-2.54.43-3.72.99-1.24.58-1.67.96-.56 1.96 2.45 2.21 5.19 4.36 8.64 4.39l.01.01c.04.04.09.06.13.07.09.06.21.08.32.04.18-.01.36-.08.53-.17 3.85-.76 7.22-2.96 10.35-5.24 1.31-.95-.29-1.49-1.29-1.66Z" fill="#ffffeb"/>
      <path d="M249.55 218.81c-.96-.16-1.95-.11-2.87.17l-.39.11c.54-1.46.86-3.02 1.25-4.54.07-.26-.19-.53-.46-.39-1.14.6-2.21 1.31-3.19 2.11-.18-2.38-1.69-4.59-2.76-6.65-.11-.21-.43-.25-.56-.04a16.35 16.35 0 0 0-2.17 5.11c-.22-.33-.46-.64-.73-.93-.54-.59-1.73-1.8-2.63-1.6-.96.22-.54 1.83-.49 2.5.1 1.27.27 2.53.57 3.77-1.29.13-2.54.43-3.72.99-1.24.58-1.67.96-.56 1.96 2.45 2.21 5.19 4.36 8.64 4.39l.01.01c.04.04.09.06.13.07.09.06.21.08.32.04.18-.01.36-.08.53-.17 3.85-.76 7.22-2.96 10.35-5.24 1.31-.95-.29-1.49-1.29-1.66Zm-16.77 3.38c-.52-.42-1.18-.86-1.59-1.39-.23-.3-.34-.18-.1-.51.13-.18.58-.3.77-.38 1.09-.49 2.25-.76 3.43-.87.01.04.02.08.03.13.47 1.61 1.18 3.11 2.15 4.44-1.47-.71-2.76-1.73-3.8-3.01-.06-.07-.31 0-.25.08 1.16 1.43 2.63 2.53 4.3 3.26.31.39.63.77.99 1.12-2.24-.25-4.19-1.44-5.94-2.87Zm6.97 2.53c-1.03-2.84-2-5.71-2.9-8.6-.04-.12-.3-.07-.26.05.92 2.93 1.9 5.84 2.95 8.72.02.05.08.07.14.06l-.06.06c-.29-.26-.57-.53-.83-.82.01-.02 0-.04-.04-.06h-.02c-1.08-1.19-1.89-2.6-2.45-4.12-.17-.45-.3-.91-.43-1.38 0-.05-.01-.09-.04-.13-.16-.63-.29-1.26-.39-1.89-.09-.57-.16-1.14-.21-1.71-.03-.35-.05-.71-.07-1.06-.02-.38-.2-.7.22-.83.9-.26 2.2 1.55 2.6 2.19.6.95.99 2.02 1.27 3.1.21.82.41 1.69.55 2.58 0 .05 0 .1.02.14.18 1.25.22 2.52-.06 3.71Zm.83-5.16v-1.26c0-.51.03-1.02.06-1.54.06-1.02.15-2.04.28-3.06.02-.14-.25-.13-.26 0-.15 1.19-.26 2.38-.31 3.57-.02.52-.03 1.04-.04 1.56 0 .25-.06.59-.03.89-.21-.99-.48-1.94-.78-2.8-.17-.49-.38-.97-.62-1.44.35-1.82 1-3.51 1.94-5.09 1.08 1.97 2.47 4.13 2.44 6.39-.98.86-1.86 1.83-2.65 2.88 0-.04 0-.07-.02-.11Zm-.22 5.46c.09-.36.16-.74.2-1.12 1.48-1.69 2.83-3.49 4.02-5.39.08-.13-.18-.16-.24-.06a40.86 40.86 0 0 1-3.73 5.05c.06-.85.02-1.72-.1-2.59.91-1.36 1.97-2.58 3.18-3.64.09-.02.16-.08.2-.17.88-.76 1.84-1.44 2.86-2.02-.35 1.46-.66 2.99-1.26 4.37-.11.09-.2.2-.24.34-.02.05-.02.11 0 .17-.16.31-.33.61-.53.9-.62.91-1.4 1.7-2.23 2.42-.37.32-.74.62-1.13.91-.12.09-.62.55-1 .83Zm9.77-4.85-.71.5c-.64.45-1.29.89-1.95 1.31-1.81 1.15-3.7 2.15-5.75 2.75.02-.02.05-.04.07-.05.54-.42 1.07-.85 1.58-1.32 1.45-1.06 2.96-2.04 4.52-2.93.12-.07-.14-.07-.2-.04-1.25.71-2.47 1.48-3.65 2.3.2-.21.39-.42.58-.64.5-.59.88-1.23 1.21-1.89.06-.03.1-.09.12-.16 0-.02 0-.04.01-.06v-.08s0-.02.01-.03c.43-.32 1.89-.47 2.22-.49.61-.03 1.7-.05 2.2.33.1.03.2.06.3.08-.19.13-.37.27-.56.4Z" fill="#fcae30"/>
      <path d="M44.64 226.53c-.96-.16-1.95-.11-2.87.17l-.39.11c.54-1.46.86-3.02 1.25-4.54.07-.26-.19-.53-.46-.39-1.14.6-2.21 1.31-3.19 2.11-.18-2.38-1.69-4.59-2.76-6.65-.11-.21-.43-.25-.56-.04a16.35 16.35 0 0 0-2.17 5.11c-.22-.33-.46-.64-.73-.93-.54-.59-1.73-1.8-2.63-1.6-.96.22-.54 1.83-.49 2.5.1 1.27.27 2.53.57 3.77-1.29.13-2.54.43-3.72.99-1.24.58-1.67.96-.56 1.96 2.45 2.21 5.19 4.36 8.64 4.39l.01.01c.04.04.09.06.13.07.09.06.21.08.32.04.18-.01.36-.08.53-.17 3.85-.76 7.22-2.96 10.35-5.24 1.31-.95-.29-1.49-1.29-1.66Z" fill="#ffffeb"/>
      <path d="M44.64 226.53c-.96-.16-1.95-.11-2.87.17l-.39.11c.54-1.46.86-3.02 1.25-4.54.07-.26-.19-.53-.46-.39-1.14.6-2.21 1.31-3.19 2.11-.18-2.38-1.69-4.59-2.76-6.65-.11-.21-.43-.25-.56-.04a16.35 16.35 0 0 0-2.17 5.11c-.22-.33-.46-.64-.73-.93-.54-.59-1.73-1.8-2.63-1.6-.96.22-.54 1.83-.49 2.5.1 1.27.27 2.53.57 3.77-1.29.13-2.54.43-3.72.99-1.24.58-1.67.96-.56 1.96 2.45 2.21 5.19 4.36 8.64 4.39l.01.01c.04.04.09.06.13.07.09.06.21.08.32.04.18-.01.36-.08.53-.17 3.85-.76 7.22-2.96 10.35-5.24 1.31-.95-.29-1.49-1.29-1.66Zm-16.77 3.38c-.52-.42-1.18-.86-1.59-1.39-.23-.3-.34-.18-.1-.51.13-.18.58-.3.77-.38 1.09-.49 2.25-.76 3.43-.87.01.04.02.08.03.13.47 1.61 1.18 3.11 2.15 4.44-1.47-.71-2.76-1.73-3.8-3.01-.06-.07-.31 0-.25.08 1.16 1.43 2.63 2.53 4.3 3.26.31.39.63.77.99 1.12-2.24-.25-4.19-1.44-5.94-2.87Zm6.97 2.53c-1.03-2.84-2-5.71-2.9-8.6-.04-.12-.3-.07-.26.05.92 2.93 1.9 5.84 2.95 8.72.02.05.08.07.14.06l-.06.06c-.29-.26-.57-.53-.83-.82.01-.02 0-.04-.04-.06h-.02c-1.08-1.19-1.89-2.6-2.45-4.12-.17-.45-.3-.91-.43-1.38 0-.05-.01-.09-.04-.13-.16-.63-.29-1.26-.39-1.89-.09-.57-.16-1.14-.21-1.71-.03-.35-.05-.71-.07-1.06-.02-.38-.2-.7.22-.83.9-.26 2.2 1.55 2.6 2.19.6.95.99 2.02 1.27 3.1.21.82.41 1.69.55 2.58 0 .05 0 .1.02.14.18 1.25.22 2.52-.06 3.71Zm.83-5.16v-1.26c0-.51.03-1.02.06-1.54.06-1.02.15-2.04.28-3.06.02-.14-.25-.13-.26 0-.15 1.19-.26 2.38-.31 3.57-.02.52-.03 1.04-.04 1.56 0 .25-.06.59-.03.89-.21-.99-.48-1.94-.78-2.8-.17-.49-.38-.97-.62-1.44.35-1.82 1-3.51 1.94-5.09 1.08 1.97 2.47 4.13 2.44 6.39-.98.86-1.86 1.83-2.65 2.88 0-.04 0-.07-.02-.11Zm-.22 5.46c.09-.36.16-.74.2-1.12 1.48-1.69 2.83-3.49 4.02-5.39.08-.13-.18-.16-.24-.06a40.86 40.86 0 0 1-3.73 5.05c.06-.85.02-1.72-.1-2.59.91-1.36 1.97-2.58 3.18-3.64.09-.02.16-.08.2-.17.88-.76 1.84-1.44 2.86-2.02-.35 1.46-.66 2.99-1.26 4.37-.11.09-.2.2-.24.34-.02.05-.02.11 0 .17-.16.31-.33.61-.53.9-.62.91-1.4 1.7-2.23 2.42-.37.32-.74.62-1.13.91-.12.09-.62.55-1 .83Zm9.77-4.85-.71.5c-.64.45-1.29.89-1.95 1.31-1.81 1.15-3.7 2.15-5.75 2.75.02-.02.05-.04.07-.05.54-.42 1.07-.85 1.58-1.32 1.45-1.06 2.96-2.04 4.52-2.93.12-.07-.14-.07-.2-.04-1.25.71-2.47 1.48-3.65 2.3.2-.21.39-.42.58-.64.5-.59.88-1.22 1.21-1.89.06-.03.1-.09.12-.16v-.06s.02-.05.02-.08c0 0 0-.02.01-.03.43-.32 1.89-.47 2.22-.49.61-.03 1.7-.05 2.2.33.1.03.2.06.3.08-.19.13-.37.27-.56.4Z" fill="#fcae30"/>
      <path d="M161.21 201.67c-1.53-.31-3.13-.27-4.63.12-.18.05-.4.1-.63.16.95-2.32 1.53-4.82 2.24-7.25.12-.41-.28-.87-.71-.66-1.87.91-3.62 1.99-5.24 3.23-.18-3.84-2.49-7.47-4.12-10.85-.17-.35-.68-.42-.9-.09-1.71 2.5-2.96 5.2-3.74 8.11-.34-.54-.71-1.05-1.12-1.53-.84-.98-2.7-2.98-4.15-2.7-1.56.3-.96 2.92-.91 4.01.1 2.04.31 4.08.73 6.09-2.08.14-4.11.57-6.03 1.4-2.02.87-2.74 1.46-.99 3.13 3.84 3.67 8.13 7.28 13.68 7.5l.02.02c.07.06.14.09.21.11.14.11.34.14.52.09.29 0 .58-.1.86-.25 6.24-1.03 11.77-4.41 16.92-7.92 2.16-1.47-.4-2.41-1.99-2.73Z" fill="#ffffeb"/>
      <path d="M161.21 201.67c-1.53-.31-3.13-.27-4.63.12-.18.05-.4.1-.63.16.95-2.32 1.53-4.82 2.24-7.25.12-.41-.28-.87-.71-.66-1.87.91-3.62 1.99-5.24 3.23-.18-3.84-2.49-7.47-4.12-10.85-.17-.35-.68-.42-.9-.09-1.71 2.5-2.96 5.2-3.74 8.11-.34-.54-.71-1.05-1.12-1.53-.84-.98-2.7-2.98-4.15-2.7-1.56.3-.96 2.92-.91 4.01.1 2.04.31 4.08.73 6.09-2.08.14-4.11.57-6.03 1.4-2.02.87-2.74 1.46-.99 3.13 3.84 3.67 8.13 7.28 13.68 7.5l.02.02c.07.06.14.09.21.11.14.11.34.14.52.09.29 0 .58-.1.86-.25 6.24-1.03 11.77-4.41 16.92-7.92 2.16-1.47-.4-2.41-1.99-2.73Zm-27.15 4.61c-.81-.71-1.86-1.45-2.49-2.31-.36-.49-.54-.31-.14-.83.21-.28.95-.45 1.26-.58 1.78-.73 3.65-1.12 5.57-1.22.02.07.03.14.05.21.67 2.61 1.74 5.07 3.24 7.25a17.974 17.974 0 0 1-5.97-5.04c-.09-.12-.5-.01-.4.12 1.8 2.35 4.11 4.2 6.76 5.46.48.64.98 1.26 1.54 1.85-3.59-.52-6.68-2.52-9.41-4.91Zm11.1 4.42c-1.52-4.63-2.93-9.29-4.25-13.98-.05-.19-.48-.12-.43.06 1.33 4.76 2.77 9.48 4.31 14.18.03.08.13.11.22.11-.03.03-.07.05-.1.09-.46-.43-.88-.88-1.29-1.35.02-.03.01-.07-.06-.1-.01 0-.03-.01-.04-.02-1.68-1.97-2.91-4.28-3.73-6.75-.24-.74-.44-1.49-.62-2.24 0-.08-.02-.15-.05-.21-.23-1.01-.4-2.04-.53-3.07-.11-.92-.2-1.84-.25-2.77-.03-.57-.05-1.14-.07-1.72-.01-.61-.28-1.14.4-1.32 1.46-.37 3.46 2.61 4.07 3.65.92 1.56 1.49 3.29 1.89 5.05.3 1.33.58 2.74.76 4.17-.01.08 0 .15.03.23.23 2.02.23 4.07-.28 5.97Zm1.58-8.27v-.41c.02-.54.04-1.07.07-1.61a67.844 67.844 0 0 1 .78-7.38c.03-.22-.39-.21-.42-.02a68.834 68.834 0 0 0-.81 8.24c-.01.39-.12.95-.09 1.42-.28-1.6-.68-3.15-1.12-4.55-.25-.8-.56-1.59-.93-2.34.66-2.91 1.78-5.59 3.37-8.09 1.64 3.23 3.77 6.77 3.61 10.41a30.766 30.766 0 0 0-4.41 4.5c0-.06 0-.11-.02-.18Zm-.63 8.78c.17-.58.29-1.18.38-1.79a66.29 66.29 0 0 0 6.73-8.48c.13-.2-.28-.26-.39-.1a66.622 66.622 0 0 1-6.26 7.94c.14-1.36.11-2.77-.03-4.17 1.53-2.14 3.31-4.05 5.3-5.71.14-.03.26-.12.33-.26 1.46-1.18 3.02-2.22 4.7-3.12-.63 2.33-1.21 4.78-2.24 6.97-.18.14-.33.32-.4.53a.53.53 0 0 0-.01.28 13 13 0 0 1-.89 1.42c-1.04 1.44-2.33 2.66-3.71 3.78-.6.49-1.23.96-1.86 1.41-.2.14-1.03.86-1.65 1.29Zm15.96-7.32c-.39.26-.77.51-1.16.76-1.05.69-2.12 1.36-3.2 2.01-2.96 1.76-6.07 3.27-9.39 4.14.04-.03.07-.06.11-.08.89-.65 1.77-1.32 2.6-2.04 2.39-1.64 4.86-3.13 7.43-4.48.19-.1-.23-.11-.32-.07a73.44 73.44 0 0 0-5.99 3.53c.33-.32.65-.65.96-1 .83-.92 1.48-1.93 2.04-2.98a.42.42 0 0 0 .2-.25c0-.03.02-.06.02-.09.01-.04.02-.08.02-.12 0-.01.01-.03.02-.04.7-.5 3.07-.67 3.6-.67.98-.01 2.73 0 3.52.63.16.05.31.1.47.15-.31.2-.62.41-.92.61Z" fill="#fcae30"/>
      <path d="M146.92 199.19c-1.23.19-2.41.66-3.43 1.37-.12.09-.27.18-.43.29.07-1.99-.18-4.02-.32-6.03-.02-.34-.45-.57-.71-.29a25.001 25.001 0 0 0-3.03 3.86c-1.19-2.82-3.92-4.9-6.06-6.97-.22-.21-.62-.12-.7.18-.59 2.34-.78 4.7-.56 7.09-.4-.31-.82-.59-1.26-.84-.9-.5-2.83-1.48-3.84-.87-1.08.65.08 2.45.42 3.24.63 1.5 1.35 2.97 2.22 4.35-1.52.68-2.91 1.56-4.12 2.71-1.27 1.2-1.64 1.84.12 2.61 3.88 1.69 8.08 3.2 12.28 1.84h.02c.07.03.13.03.19.03.13.04.29 0 .41-.08.21-.09.4-.24.58-.42 4.38-2.49 7.58-6.53 10.46-10.56 1.21-1.69-.96-1.69-2.24-1.49Z" fill="#ffffeb"/>
      <path d="M146.92 199.19c-1.23.19-2.41.66-3.43 1.37-.12.09-.27.18-.43.29.07-1.99-.18-4.02-.32-6.03-.02-.34-.45-.57-.71-.29a25.001 25.001 0 0 0-3.03 3.86c-1.19-2.82-3.92-4.9-6.06-6.97-.22-.21-.62-.12-.7.18-.59 2.34-.78 4.7-.56 7.09-.4-.31-.82-.59-1.26-.84-.9-.5-2.83-1.48-3.84-.87-1.08.65.08 2.45.42 3.24.63 1.5 1.35 2.97 2.22 4.35-1.52.68-2.91 1.56-4.12 2.71-1.27 1.2-1.64 1.84.12 2.61 3.88 1.69 8.08 3.2 12.28 1.84h.02c.07.03.13.03.19.03.13.04.29 0 .41-.08.21-.09.4-.24.58-.42 4.38-2.49 7.58-6.53 10.46-10.56 1.21-1.69-.96-1.69-2.24-1.49Zm-19.01 10.91c-.8-.31-1.78-.57-2.5-1.04-.4-.27-.48-.08-.33-.58.08-.27.59-.6.78-.78 1.13-1.03 2.42-1.84 3.82-2.45.03.05.06.09.09.14 1.22 1.76 2.69 3.31 4.42 4.53-2.07-.27-4.06-.99-5.85-2.12-.1-.06-.38.13-.27.2 1.99 1.26 4.22 2.01 6.55 2.22.53.35 1.08.67 1.66.96-2.82.6-5.68-.05-8.38-1.08Zm9.51.25c-2.41-3.04-4.75-6.13-7.02-9.27-.09-.13-.39.04-.3.16 2.3 3.19 4.68 6.32 7.12 9.4.04.06.13.05.2.02-.02.03-.04.06-.05.1-.46-.19-.9-.42-1.34-.66 0-.03 0-.06-.07-.06h-.03c-1.8-1.01-3.35-2.4-4.65-4.01-.38-.48-.74-.99-1.08-1.51a.307.307 0 0 0-.1-.15c-.45-.7-.86-1.41-1.24-2.15-.34-.65-.65-1.32-.95-2-.18-.42-.35-.84-.52-1.26-.18-.45-.52-.78-.06-1.09.99-.68 3.3 1 4.05 1.61 1.12.91 2.02 2.05 2.8 3.25.59.91 1.19 1.89 1.72 2.91.01.06.04.12.08.16.73 1.45 1.29 2.98 1.44 4.54Zm-1.09-6.61c-.04-.1-.07-.21-.11-.31-.14-.4-.27-.81-.4-1.22a57.409 57.409 0 0 1-1.45-5.72c-.03-.17-.35-.05-.32.1.3 1.5.65 2.99 1.07 4.47.18.64.38 1.28.59 1.91.1.3.17.74.33 1.09-.65-1.11-1.37-2.16-2.09-3.09-.41-.53-.86-1.03-1.34-1.49-.31-2.35-.21-4.67.29-6.97 2.11 1.96 4.68 4.02 5.56 6.78-.84 1.45-1.52 2.98-2.06 4.58a.746.746 0 0 0-.07-.12Zm1.94 6.73c-.03-.48-.1-.96-.21-1.44 1.12-2.65 2.02-5.39 2.7-8.19.05-.19-.28-.12-.32.03-.63 2.62-1.47 5.17-2.49 7.66-.27-1.05-.68-2.1-1.17-3.11.55-2.02 1.36-3.93 2.39-5.72.1-.06.16-.16.17-.29.76-1.28 1.65-2.49 2.65-3.62.17 1.92.41 3.9.25 5.82-.1.16-.16.33-.15.51 0 .07.03.14.06.21-.06.44-.15.88-.27 1.31-.38 1.36-1.01 2.63-1.73 3.84-.32.53-.65 1.05-1 1.56-.11.16-.53.92-.88 1.42Zm9.91-9.85c-.22.3-.44.6-.66.89-.6.8-1.21 1.6-1.84 2.38-1.73 2.13-3.63 4.11-5.87 5.68l.06-.09c.49-.73.96-1.47 1.38-2.24 1.33-1.88 2.77-3.68 4.31-5.39.11-.13-.2-.02-.25.04a60.01 60.01 0 0 0-3.51 4.28c.16-.33.31-.67.44-1.01.36-.92.58-1.85.7-2.79.06-.07.09-.15.08-.24v-.07l-.03-.1v-.04c.39-.57 2.11-1.34 2.5-1.49.73-.28 2.04-.74 2.8-.5.13 0 .26-.01.39-.02-.17.24-.35.48-.52.71Z" fill="#fcae30"/>
      <path d="M209.18 188.19a19.37 19.37 0 0 1-8.24 13.14.455.455 0 0 0-.43.13c-1.35-.55-1.97-2.19-2.77-3.35-.66-.96-1.45-1.54-2.51-2-.21-.09-.41-.18-.62-.27a34.775 34.775 0 0 0 14.57-7.66ZM167.09 190.73c-.2-2.76-.12-6.3 1.38-8.76.22.62.15 1.79.2 2.23.07.58.17 1.16.3 1.73.3 1.3.78 2.59 1.48 3.73 1.18 1.92 2.95 3.38 5.1 4.02-1.7 1.43-3.13 3.13-4.24 5.02-2.74-1.72-4-4.84-4.22-7.98ZM199.97 209.84c-.58.88-1.62 2.59-2.63 3.06-1.05.48-1.44-.55-2.41-.42-1.83.26-1.67 2.8-2.26 4.03-1.09 2.25-3.36 4.06-5.22 5.65-.63.54-2.79 2.83-3.5 2.2-.07-.06-.14-.59-.22-.72a1.72 1.72 0 0 0-.52-.52c-1.06-.73-2.45-.32-3.24.59-.56.65-.81 1.48-1.07 2.28-.34 1.04-.62 1.23-1.76 1.32-.69.06-1.42-.03-2.11-.05-1.37-.03-2.74-.02-4.11-.1-.78-.04-2.62-.46-3.15-1.32.04-.06.07-.13.08-.21.04-.42.12-.84.22-1.24v-.01c.11-.12.13-.26.09-.38.63-2.22 1.92-4.24 2.18-6.57.34-2.99-1.02-5.92-.98-8.94.07-5.69 2.79-11.14 7.26-14.64.13-.1.16-.22.13-.34 1.04-.83 2.29-1.32 3.64-1.36 1.39-.04 2.45.53 3.69 1.04 2.19.9 4.55-.08 6.71.67 1.14.4 1.57 1.59 2.52 2.23 1.18.79 2.54.97 3.47 2.15 1.26 1.6 1.94 3.84 4.15 4.18 1.89 2.14.4 5.31-.99 7.41Z" fill="#ffffeb"/>
      <path d="M210.12 187.16c.03-.37-.46-.51-.7-.29a34.104 34.104 0 0 1-15.86 8.39c-.07-.05-.14-.11-.2-.17-.46-.44-.74-1.01-1.24-1.41-.74-.59-1.67-.79-2.59-.84-1.25-.07-2.51.15-3.76-.02-1.32-.18-2.41-1-3.7-1.3-2.13-.49-4.31.12-5.96 1.49-.02 0-.04-.02-.06-.02-2.92-.76-4.95-3.12-5.9-5.91-.47-1.38-.69-2.82-.78-4.27-.05-.76-.02-1.43-.71-1.87-.2-.13-.43-.02-.56.15-2.06 2.77-2.15 7.36-1.72 10.64.4 3.1 1.84 6.04 4.54 7.72-1.29 2.41-2.09 5.1-2.3 7.86-.1 1.32-.06 2.64.12 3.95.25 1.84.92 3.65.86 5.52-.08 2.57-1.53 4.8-2.22 7.23-.67.91-.5 2.16.32 2.98 1.33 1.35 3.8 1.04 5.51 1.08 1.32.03 2.64.07 3.96.09.69.01 1.42.09 1.93-.47.53-.58.6-1.5.86-2.2.25-.65.57-1.28 1.19-1.64.35-.21.62-.29 1.03-.22.75.12.75.42.99 1.14.49 1.49 1.69.55 2.58-.13 1.94-1.49 3.8-3.11 5.5-4.86 1.5-1.55 2.3-3.02 2.83-5.09.06-.24.13-.64.28-.83 1.35-1.61.99-.31 1.52-.07.18.08.32.24.52.29.83.23 1.53-.54 2.05-1.05 2.48-2.45 6.04-7.68 3.29-10.96 0-.07-.03-.14-.07-.2 4.83-3.4 7.94-8.78 8.48-14.68Zm-43.03 3.58c-.2-2.76-.12-6.3 1.38-8.76.22.62.15 1.79.2 2.23.07.58.17 1.16.3 1.73.3 1.3.78 2.59 1.48 3.73 1.18 1.92 2.95 3.38 5.1 4.02-1.7 1.43-3.13 3.13-4.24 5.02-2.74-1.72-4-4.84-4.22-7.98Zm32.88 19.1c-.58.88-1.62 2.59-2.63 3.06-1.05.48-1.44-.55-2.41-.42-1.83.26-1.67 2.8-2.26 4.03-1.09 2.25-3.36 4.06-5.22 5.65-.63.54-2.79 2.83-3.5 2.2-.07-.06-.14-.59-.22-.72a1.72 1.72 0 0 0-.52-.52c-1.06-.73-2.45-.32-3.24.59-.56.65-.81 1.48-1.07 2.28-.2.61-.39.93-.73 1.1-.05-.06-.2-.09-.34-.04-.43-.1-.86-.19-1.29-.29-.01-.29 0-.58 0-.86-.02-.39.04-.03-.05-.58-.03-.18-.56-.05-.53.14 0 .23.01.45.02.68-.74 1.14-1.34 1.29-1.79.47-.46-.54-.37-.67-.36-1.35 0-.22-.48-.1-.53.07-.2.72-.6 2.14-1.77 1.74-.99-.34-.46-1.35-.25-2 .07-.22-.45-.04-.51.03-.21.24-.21.53-.38.75-.97 1.24-1.75 1.09-2.34-.09-.03-.07-.13-.09-.23-.07 0-.02.01-.03.01-.05.04-.42.12-.84.22-1.24v-.01c.11-.12.13-.26.09-.38.63-2.22 1.92-4.24 2.18-6.57.34-2.99-1.02-5.92-.98-8.94.07-5.69 2.79-11.14 7.26-14.64.13-.1.16-.22.13-.34 1.04-.83 2.29-1.32 3.64-1.36 1.39-.04 2.45.53 3.69 1.04 2.19.9 4.55-.08 6.71.67 1.14.4 1.57 1.59 2.52 2.23 1.18.79 2.54.97 3.47 2.15 1.26 1.6 1.94 3.84 4.15 4.18 1.89 2.14.4 5.31-.99 7.41Zm.96-8.5a.455.455 0 0 0-.43.13c-1.35-.55-1.97-2.19-2.77-3.35-.66-.96-1.45-1.54-2.51-2-.21-.09-.41-.18-.62-.27a34.775 34.775 0 0 0 14.57-7.66 19.37 19.37 0 0 1-8.24 13.14Z" fill="#fcae30"/>
      <path d="M192.52 204.29c-.15-2.89-2.4-5.3-5.38-5.3s-5.39 2.45-5.39 5.39 2.46 5.4 5.39 5.39c2.98-.01 5.23-2.4 5.38-5.3V204.3Zm-4.29 1.84c.36-.61.57-1.3.63-2.02 0-.1-.01-.18-.06-.24l.09-.4a5.64 5.64 0 0 1-.76 2.98c.04-.1.07-.21.1-.32Zm-1.09-6.46c.2 0 .4.02.59.04-.05.1-.05.23.04.35.02.03.03.06.05.08-.05.04-.08.09-.1.15-.19-.28-.44-.5-.77-.61h.19Zm.21 6.25h.01c-.02.07-.04.13-.07.19-.12.17-.26.32-.41.45.16-.21.31-.43.46-.65Zm-3.91-2.85-.06.21c-.06.07-.1.15-.11.26v.05h-.12c.08-.19.19-.37.31-.54 0 0 0 .02-.01.03Zm-.58-.63c.37-.81.96-1.49 1.69-1.98-.67.6-1.26 1.39-1.69 1.98Zm2-.99h-.03c.08-.08.16-.16.26-.24 0 .06.01.11.02.17-.03.02-.07.04-.1.06h-.14Zm.53 6.88c-.12-.04-.24-.1-.35-.17a.45.45 0 0 0 .11-.23c.09 0 .19 0 .29-.02-.02.09-.03.18-.05.26v.15Zm1.43.73c1.22-.64 2.2-2.36 2.57-3.43.67-1.93.33-4.01-.74-5.71.49.17.93.42 1.32.72v.12c.82 2.72.38 5.55-1.22 7.89-.03.05-.04.09-.05.14-.49.18-1.02.28-1.58.28-.11 0-.21 0-.31-.02Zm2.77-.69a9.614 9.614 0 0 0 1.1-7.03c.69.82 1.11 1.89 1.15 3.03-.06 1.67-.93 3.16-2.25 4Z" fill="#fcae30"/>
      <path d="M186.51 211.64c-3.63-.9-5.96-4.12-5.73-7.85.02-.25-.52-.16-.53.05-.24 3.88 2.18 7.19 5.95 8.13.2.05.62-.25.31-.33ZM190.39 215.92c-.73.82-1.25 1.76-1.85 2.67-.83 1.26-1.88 2.11-3.13 2.94-.21.14.31.08.4.01.95-.63 1.89-1.29 2.62-2.18.9-1.1 1.48-2.42 2.43-3.48.1-.12-.39-.05-.48.04ZM193.66 212.07c-.11-.03-.29.03-.37.1-.19.17-.39.33-.58.5-.09.08-.05.14.05.17.11.03.29-.03.37-.1.19-.17.39-.33.58-.5.09-.08.05-.14-.05-.17ZM199.81 208a6.083 6.083 0 0 1-2.24 3.37c-.23.18.29.17.42.07 1.17-.88 1.98-2.1 2.35-3.52.05-.18-.48-.1-.52.07ZM176.13 219.8c-.44-.97-.62-1.93-.64-2.99 0-.67.18-1.54-.19-2.15-.41-.67-1.33-.75-2-.47-1.04.44-1.36 1.57-1.52 2.59-.33 2.08-.77 3.89-1.85 5.67a.41.41 0 0 0-.27.04c-.66.41-.32 1.08.34 1.26 1.45.4 2.91-.42 4.3-.28.88.09 1.77 1.02 2.57.08.92-1.08-.28-2.74-.73-3.75ZM170.59 195.78a4.952 4.952 0 0 1-1.82-4.65c.02-.13-.5-.04-.52.09-.28 1.82.4 3.58 1.84 4.74.11.09.57-.12.49-.18ZM200.22 199.05c-1.34-.6-1.59-2.72-3.2-2.8-.12 0-.6.22-.34.23 1.46.08 1.84 2.23 3.11 2.79.12.05.6-.14.43-.21ZM181 210.15a8.61 8.61 0 0 1-1.61-3.93c-.03-.21-.56-.09-.53.14.21 1.47.77 2.82 1.65 4.01.13.17.63-.02.48-.22ZM175.44 211.38l-.17-.17c-.11-.11-.61.08-.49.19l.17.17c.11.11.61-.08.49-.19ZM178.05 219.49a4.39 4.39 0 0 1-1.06-2.83c0-.29-.54-.22-.53.03 0 1.13.38 2.17 1.11 3.03.16.19.66-.02.48-.24ZM175.52 197.16c-2.8 2.88-4.66 6.43-5.42 10.37 0 .03.5.01.53-.14.76-3.9 2.6-7.43 5.37-10.28.1-.1-.39-.04-.47.05ZM183.54 194.3c-1-.69-2.17-.95-3.38-.78-.13.02-.57.24-.23.2 1.12-.15 2.18.12 3.11.76.12.08.56-.13.5-.17ZM205.83 193.81c-.64.8-1.28 1.61-1.92 2.41-.15.19.38.16.49.02.64-.8 1.28-1.61 1.92-2.41.15-.19-.38-.16-.49-.02ZM200.99 195.32l-.35.35c-.21.21.3.2.42.08l.35-.35c.21-.21-.3-.2-.42-.08Z" fill="#fcae30"/>
    </g>
  </symbol>
</svg>