<?xml version="1.0" standalone="no"?>
<!DOCTYPE svg PUBLIC "-//W3C//DTD SVG 20010904//EN"
 "http://www.w3.org/TR/2001/REC-SVG-20010904/DTD/svg10.dtd">
<svg version="1.0" xmlns="http://www.w3.org/2000/svg"
 width="640.000000pt" height="640.000000pt" viewBox="0 0 640.000000 640.000000"
 preserveAspectRatio="xMidYMid meet">
<metadata>
Created by potrace 1.14, written by Peter Selinger 2001-2017
</metadata>
<g transform="translate(0.000000,640.000000) scale(0.100000,-0.100000)"
fill="#000000" stroke="none">
<path d="M3519 6396 c-2 -2 -33 -7 -69 -10 -307 -32 -660 -158 -919 -328 -41
-26 -76 -48 -78 -48 -2 0 -30 -21 -61 -46 -31 -25 -75 -59 -97 -77 -52 -41
-219 -208 -270 -270 -52 -63 -175 -235 -175 -244 0 -3 -6 -14 -14 -22 -25 -28
-130 -242 -173 -351 -39 -102 -76 -223 -88 -291 -3 -18 -8 -35 -10 -39 -2 -4
-7 -25 -10 -46 -2 -21 -7 -51 -10 -66 -13 -70 -15 -89 -21 -178 -12 -162 -3
-375 21 -495 2 -11 4 -22 4 -26 1 -3 22 -4 49 -3 26 1 69 2 95 3 l48 1 -7 48
c-3 26 -9 56 -11 67 -9 39 -12 401 -4 450 5 28 12 77 16 110 13 115 102 416
148 500 6 11 12 22 12 25 1 3 12 25 25 50 13 25 33 63 44 85 11 22 24 45 28
50 4 6 29 42 54 80 74 110 159 212 264 315 94 92 250 220 269 220 5 0 11 4 13
8 6 15 159 103 267 154 96 45 308 120 371 132 14 2 57 11 95 19 190 41 536 44
710 7 22 -5 58 -11 80 -15 45 -7 69 -12 73 -15 2 -3 5 -4 47 -14 342 -88 738
-341 977 -625 l37 -44 73 31 c40 17 81 33 91 36 22 7 18 13 -58 103 -223 261
-554 497 -860 612 -33 12 -68 27 -77 32 -10 5 -26 9 -36 9 -10 0 -22 3 -26 7
-3 4 -12 8 -19 9 -21 5 -51 13 -87 24 -30 9 -132 29 -280 56 -36 6 -445 15
-451 10z"/>
<path d="M2868 5844 c-2 -1 -17 -5 -33 -8 -79 -15 -205 -102 -205 -142 0 -14
37 -73 53 -85 11 -8 470 -455 771 -751 l261 -256 -225 -110 c-524 -255 -494
-245 -571 -194 -24 16 -59 37 -76 48 -18 10 -33 22 -33 26 0 4 -5 8 -11 8 -11
0 -52 29 -139 99 -123 99 -222 118 -332 63 -81 -40 -130 -86 -126 -121 3 -35
34 -74 204 -257 181 -195 261 -293 293 -359 23 -49 61 -198 76 -300 1 -11 7
-47 13 -80 6 -33 14 -76 17 -95 23 -144 48 -249 64 -270 28 -37 78 -32 182 18
109 53 135 87 138 182 3 67 5 96 16 260 3 52 7 115 9 140 5 78 16 109 47 131
16 11 29 17 29 12 0 -4 4 -3 8 3 7 10 631 324 644 324 4 0 6 -8 6 -17 -1 -10
2 -38 5 -63 4 -25 9 -65 12 -90 3 -25 8 -61 11 -80 2 -19 7 -55 9 -80 2 -25 7
-65 10 -90 3 -25 8 -61 10 -80 2 -19 6 -57 10 -85 3 -27 8 -69 10 -92 3 -24 7
-62 10 -85 3 -24 7 -61 9 -83 3 -22 10 -83 16 -135 6 -52 13 -114 15 -137 3
-24 7 -62 10 -85 3 -24 7 -63 10 -88 3 -25 8 -65 11 -90 9 -63 11 -83 13 -97
2 -23 40 -53 66 -53 13 0 55 10 92 22 53 17 79 33 120 74 56 56 74 99 78 194
2 30 4 57 5 60 1 3 2 8 1 12 0 4 3 29 8 55 5 26 13 75 16 108 4 33 9 67 10 77
2 9 6 38 10 65 4 26 9 59 11 73 6 33 15 99 19 130 4 32 15 118 20 150 19 130
35 244 40 285 3 28 8 61 10 75 3 14 8 43 10 65 4 36 20 151 30 215 2 14 9 62
15 107 19 141 15 138 260 250 142 65 365 177 470 236 58 33 114 64 125 71 30
16 155 105 191 135 17 14 52 44 79 66 66 54 87 76 104 105 47 83 4 202 -87
241 -35 15 -59 18 -107 14 -112 -9 -284 -47 -331 -74 -11 -6 -41 -20 -69 -32
-107 -46 -324 -149 -605 -287 -102 -50 -199 -92 -215 -94 -39 -3 -121 20 -136
38 -6 8 -16 14 -21 14 -5 0 -54 27 -109 60 -55 33 -101 60 -104 60 -2 0 -38
20 -79 45 -42 25 -78 45 -80 45 -3 0 -54 29 -115 65 -60 36 -112 65 -114 65
-3 0 -62 34 -132 75 -69 41 -128 75 -130 75 -3 0 -107 60 -232 133 -125 73
-241 138 -258 145 -35 14 -113 31 -117 26z"/>
<path d="M5670 4888 c-41 -28 -76 -52 -77 -52 -1 -1 5 -24 13 -51 9 -28 18
-61 20 -75 3 -14 11 -50 19 -80 8 -30 17 -77 20 -105 3 -27 9 -72 12 -100 16
-121 6 -436 -17 -540 -5 -22 -12 -56 -15 -75 -3 -19 -10 -51 -15 -70 -5 -19
-10 -38 -10 -42 -1 -20 -91 -261 -120 -323 -52 -109 -181 -321 -211 -345 -3
-3 -10 -12 -15 -22 -24 -43 -168 -197 -264 -281 -30 -26 -62 -53 -70 -60 -8
-8 -33 -27 -55 -43 -22 -16 -41 -32 -43 -36 -2 -5 -8 -8 -12 -8 -5 0 -28 -13
-52 -29 -68 -45 -304 -171 -322 -171 -3 0 -17 -5 -33 -12 -15 -6 -30 -12 -33
-13 -3 -1 -12 -4 -20 -8 -49 -19 -192 -59 -250 -71 -14 -3 -35 -7 -48 -10
-129 -28 -452 -41 -597 -23 -86 10 -179 27 -250 46 -22 5 -56 14 -75 19 -67
17 -216 74 -310 120 -197 94 -360 207 -517 358 l-64 61 -19 -28 c-11 -15 -20
-30 -20 -33 0 -3 -13 -28 -30 -56 -28 -48 -29 -51 -12 -68 9 -10 35 -45 57
-77 22 -33 45 -67 52 -75 25 -30 170 -239 248 -355 44 -66 83 -122 86 -125 3
-3 55 -84 117 -180 61 -96 115 -180 119 -186 4 -5 14 -21 22 -35 8 -13 50 -82
94 -154 44 -71 82 -136 85 -145 3 -8 8 -17 12 -20 3 -3 34 -54 67 -115 34 -60
75 -135 92 -165 87 -154 351 -702 351 -727 0 -5 6 -19 13 -33 7 -14 33 -78 57
-143 24 -65 46 -114 50 -110 4 4 19 44 35 88 16 44 39 103 52 132 12 28 23 56
23 61 0 5 6 22 14 38 8 16 45 97 82 179 61 133 117 248 226 457 18 35 36 65
41 66 4 2 7 8 7 13 0 18 188 340 347 594 24 39 49 79 56 90 22 35 283 429 318
479 19 27 50 72 70 100 122 176 238 335 264 362 142 148 193 211 282 344 47
71 117 189 118 200 1 3 15 32 32 65 80 157 167 441 188 620 4 28 9 61 12 75 9
46 10 384 2 455 -21 168 -18 145 -39 245 -17 76 -19 82 -45 169 -14 47 -25 86
-25 88 0 10 -23 -2 -90 -49z"/>
<path d="M510 3833 c0 -8 211 -115 234 -119 6 -1 44 -16 84 -33 39 -16 72 -28
72 -25 0 3 8 0 18 -5 24 -13 210 -61 292 -76 138 -24 205 -29 365 -29 218 2
322 19 590 98 6 1 27 10 49 19 21 9 42 17 47 17 15 0 242 119 269 141 l25 20
-31 -6 c-17 -3 -53 -8 -80 -10 -44 -4 -70 -8 -154 -19 -14 -2 -54 -7 -90 -10
-36 -4 -81 -9 -100 -11 -19 -3 -66 -7 -105 -10 -38 -3 -95 -7 -125 -10 -288
-24 -815 -24 -950 -1 -14 3 -53 7 -86 10 -34 4 -86 11 -115 17 -30 6 -65 13
-79 15 -14 3 -47 12 -74 20 -58 16 -56 16 -56 7z"/>
<path d="M2606 3625 c-69 -41 -172 -114 -203 -144 -12 -12 -25 -21 -29 -21
-12 0 -209 -204 -256 -265 -131 -172 -240 -377 -304 -573 -20 -59 -38 -118
-40 -132 -3 -14 -9 -38 -14 -55 -5 -16 -12 -47 -16 -69 -3 -21 -8 -48 -10 -60
-17 -88 -26 -168 -30 -275 -2 -68 -6 -126 -7 -130 -2 -3 -1 -22 3 -41 5 -33 7
-30 23 40 10 41 19 83 22 92 11 46 71 213 78 216 4 2 7 9 7 16 0 30 151 347
256 536 71 129 229 387 324 530 50 75 235 339 247 352 23 25 14 23 -51 -17z"/>
</g>
</svg>
